<?xml version="1.0" encoding="utf-8"?>
<!-- Generator: Adobe Illustrator 21.1.0, SVG Export Plug-In . SVG Version: 6.00 Build 0)  -->
<svg version="1.1" id="Layer_1" xmlns="http://www.w3.org/2000/svg" xmlns:xlink="http://www.w3.org/1999/xlink" x="0px" y="0px"
	 viewBox="0 0 406.4 195.7" style="enable-background:new 0 0 406.4 195.7;" xml:space="preserve">
<style type="text/css">
	.st0{fill:#635438;}
</style>
<g>
	<path class="st0" d="M56.1,90.9c1.8,0.8,3.3,1.8,4.8,3.1c1.2,1.1,2.4,2.5,3.4,4.1c1,1.7,1.6,3.7,1.8,6.1c0.1,2.7-0.2,5-0.9,7
		c-0.7,2-2.1,3.7-4.2,5c-2.1,1.3-4.9,2.4-8.4,3c-3.6,0.7-8.1,1-13.7,1h-22h-3.3H3.5V67.8h35.3c4.4,0,8.1,0.4,10.9,1.3
		c2.8,0.9,5,2,6.5,3.4c1.6,1.4,2.6,2.9,3.2,4.6c0.5,1.7,0.8,3.3,0.7,4.9c-0.1,1.6-0.3,2.9-0.7,4c-0.4,1.1-0.9,2.1-1.4,2.8
		C57.4,89.7,56.8,90.3,56.1,90.9z M16.8,88h22c1.2,0,2.3-0.1,3.3-0.2c1-0.1,1.8-0.4,2.5-0.7c0.7-0.4,1.2-0.9,1.6-1.5
		c0.4-0.6,0.6-1.5,0.6-2.6c0-1.2-0.2-2.1-0.5-2.8c-0.3-0.7-0.8-1.2-1.5-1.5c-0.7-0.3-1.5-0.5-2.5-0.6c-1-0.1-2.2-0.1-3.5-0.1h-22V88
		z M43.3,110c1.5,0,2.8-0.1,4-0.2c1.2-0.1,2.2-0.4,3-0.8c0.8-0.4,1.5-1,1.9-1.8c0.4-0.8,0.7-1.8,0.7-3.1c0-1.4-0.2-2.5-0.6-3.3
		c-0.4-0.8-1-1.4-1.8-1.8c-0.8-0.4-1.8-0.7-3-0.7c-1.2-0.1-2.6-0.1-4.2-0.1H16.8V110H43.3z"/>
	<path class="st0" d="M108.8,100H88.9v20.2H75.7V67.7h13.2h26.5c4.4,0,8,0.4,11,1.2c3,0.8,5.4,1.9,7.3,3.3c1.9,1.4,3.2,3.1,4,5.1
		c0.8,2,1.2,4.2,1.2,6.5c0,2.1-0.3,4.1-0.8,5.9c-0.5,1.8-1.4,3.4-2.7,4.7c-1.2,1.3-2.9,2.4-4.9,3.3c-2,0.9-4.6,1.4-7.6,1.7
		l17.1,20.7h-16L108.8,100z M88.9,89.8h26.5c3.5,0,6.2-0.4,7.8-1.1c1.7-0.8,2.5-2.4,2.5-4.8c0-1.3-0.2-2.3-0.7-3.1
		c-0.5-0.8-1.1-1.4-2-1.8c-0.9-0.4-2-0.7-3.3-0.9c-1.3-0.1-2.7-0.2-4.3-0.2H88.9V89.8z"/>
</g>
<g>
	<path class="st0" d="M335.2,67.7l-18.4,52.5h-14L291,86.5l-11.9,33.6h-13.9l-18.5-52.5h13.9l11.9,37.6l11.8-37.6h13.2h0.7
		l11.9,37.6L322,67.7H335.2z"/>
	<path class="st0" d="M399.3,67.7v52.5h-9.7h-3.5l-29.9-38.9v38.9H343V67.7h17.3l25.8,33.1V67.7H399.3z"/>
</g>
<g>
	<path class="st0" d="M191.2,195.7c-2.7-0.7-5.4-1.4-8.1-2.1c-17.1-4.3-35.1-18.9-32.9-42.6c0.6-6.5,0.3-13,0.5-19.5
		c0.5-16,1.6-32,1.4-47.9c-0.4-20.8,14.9-35.9,31.8-40.1c14-3.5,27.1-1.7,39.2,6.2c11.3,7.4,17.5,18,17.9,31.7
		c0.7,23,1.5,45.9,2,68.9c0.6,22.6-11.2,37.9-33.2,43.4c-2.5,0.6-5,1.4-7.6,2.1C198.5,195.7,194.9,195.7,191.2,195.7z M196.7,125.9
		c16.8,0,30.6-13.9,30.4-30.5c-0.2-16.5-13.9-30-30.4-30c-16.6,0-30.3,13.6-30.4,30C166.1,112.1,179.9,125.9,196.7,125.9z
		 M195.7,183.2c11.5-0.1,21.6-3.2,29.3-11.9c5.7-6.5,8.2-14.1,4.8-22.6c-3.4-8.5-10.4-12.5-19.1-13c-9.5-0.5-19-0.5-28.5,0
		c-8.5,0.5-15.5,4.3-18.8,12.6c-3.4,8.6-1.2,16.4,4.8,23.1C175.6,179.6,185.2,182.8,195.7,183.2z M197.1,49.7
		c-8.6,0.1-16.5,2.1-23.8,6.7c-2.1,1.3-4.7,2.9-2.9,5.9c1.8,3.1,4.2,1.5,6.4,0.2c13.2-7.6,26.4-7.5,39.8-0.1c1.6,0.9,5,1,5.9,0
		c2.3-2.6-0.2-4.4-2.4-5.8C213.1,51.9,205.3,50,197.1,49.7z"/>
</g>
<g>
	<path class="st0" d="M105.3,30.3l4-3c4-3,8.1-3.7,11.4,0.6c3.3,4.4,1.4,8.3-2.5,11.2l-4,3L105.3,30.3z M116.8,36.8
		c2.8-2.1,3-4.1,1-6.8c-1.9-2.5-3.9-2.9-6.7-0.8l-1.3,1l5.7,7.5L116.8,36.8z"/>
	<path class="st0" d="M122.4,18.8l3.2-1.6l6.7,13.2l-3.2,1.6L122.4,18.8z"/>
	<path class="st0" d="M135.1,25.2l2.1-2.3c1.4,1.2,3.2,1.5,5,0.9c1.6-0.6,2.5-1.5,2.1-2.6c-0.4-1.1-1.6-1.1-3.8-0.9
		c-3,0.3-6.1,0.7-7.1-2.2c-0.9-2.6,0.7-5,4-6.2c3.1-1.1,5.5-0.4,7.1,0.7l-1.8,2.5c-1.2-0.9-3-1.2-4.5-0.6c-1.4,0.5-2,1.4-1.7,2.2
		c0.4,1.1,1.7,1.1,3.9,0.9c2.9-0.3,6.1-0.6,7.1,2.3c0.8,2.2-0.3,4.9-4.6,6.4C139.6,27.5,137,26.8,135.1,25.2z"/>
	<path class="st0" d="M154.1,10.1l-4.7,1.1l-0.6-2.7l13-2.9l0.6,2.7l-4.7,1.1l2.7,11.8l-3.5,0.8L154.1,10.1z"/>
	<path class="st0" d="M167.2,4.7l6.1-0.7c4-0.5,6.5,0.5,6.9,3.8c0.3,2.3-0.8,3.7-2.9,4.6l4.3,5.5l-3.8,0.5l-4-5.1l-2.1,0.2l0.7,5.5
		l-3.5,0.4L167.2,4.7z M173.9,10.6c2.1-0.2,3-0.9,2.8-2.4c-0.2-1.4-1.2-1.9-3.3-1.6L171,6.9l0.5,4L173.9,10.6z"/>
	<path class="st0" d="M185.9,2.9l3.6-0.2l0.7,14.8l-3.6,0.2L185.9,2.9z"/>
	<path class="st0" d="M196,2.5l6.5,0.2c3,0.1,5.8,0.8,5.7,3.8c-0.1,2.1-1.5,3.1-3.2,3.3l0,0c2,0.4,3.5,1.4,3.4,3.7c-0.1,3-3,4-6,3.9
		l-6.8-0.2L196,2.5z M202,15c2,0.1,2.9-0.6,2.9-1.9c0-1.3-1-2-3-2l-2.7-0.1l-0.1,3.9L202,15z M202,8.8c1.9,0.1,2.7-0.6,2.8-1.7
		c0-1.2-0.7-1.8-2.6-1.9l-2.7-0.1l-0.1,3.6L202,8.8z"/>
	<path class="st0" d="M213.6,12.4l1.2-9.1l3.6,0.5l-1.2,9c-0.3,2.1,0.5,3.4,2.6,3.7c2.1,0.3,3.1-0.8,3.4-2.9l1.2-9l3.5,0.4l-1.2,9
		c-0.5,3.6-2.8,5.6-7.3,5C214.8,18.5,213.1,16,213.6,12.4z"/>
	<path class="st0" d="M237,9.7l-4.7-1.1l0.6-2.6L245.9,9l-0.6,2.6l-4.7-1.1l-2.8,11.8l-3.5-0.8L237,9.7z"/>
	<path class="st0" d="M251.2,10.7l3.4,1.1l-4.8,14l-3.4-1.1L251.2,10.7z"/>
	<path class="st0" d="M261.4,14.3l3.2,1.6l2,11.5l0,0l4.1-8.5l3,1.4l-6.5,13.3l-3-1.4l-2.2-11.7l0,0l-4.2,8.6l-3-1.4L261.4,14.3z"/>
	<path class="st0" d="M275.5,29.9c3-3.5,7.1-4,10.6-1c2.3,2,3.5,4.4,1.9,7.9l-3-1.5c0.8-2,0.5-3.3-0.7-4.3c-1-0.9-3.3-1.9-6,1.3
		c-2.7,3.2-1.7,5.4-0.3,6.5c1.4,1.2,3,1.2,4.3,0.1l-2.2-1.8l1.6-1.8l4.8,4l-4.8,5.7l-2.2-1.9l1.3-1.6l0,0c-0.8,0.4-2.9,0.6-4.7-1
		C272.2,37.2,272.7,33.3,275.5,29.9z"/>
</g>
<g>
	<path class="st0" d="M92.8,148.8c0,0.3-0.2,0.4-0.3,0.4c-0.1,0-0.2-0.1-0.2-0.4v-0.6c0-0.7-0.2-1.2-0.5-1.5
		c-0.4-0.3-0.9-0.5-1.5-0.5c-0.4,0-0.8,0.1-1.1,0.2c-0.3,0.1-0.6,0.3-0.9,0.6c-0.3,0.2-0.5,0.5-0.6,0.8c-0.1,0.3-0.2,0.7-0.2,1.1
		s0.1,0.7,0.2,1s0.4,0.6,0.7,0.9l1.4,1.5c0.3,0.3,0.5,0.5,0.8,0.8c0.2,0.2,0.5,0.5,0.6,0.8c0.2,0.3,0.3,0.6,0.4,0.9
		c0.1,0.3,0.2,0.7,0.2,1.2c0,0.6-0.1,1.2-0.4,1.7c-0.3,0.5-0.6,1-1,1.4c-0.4,0.4-0.9,0.7-1.5,0.9c-0.6,0.2-1.2,0.3-1.8,0.3
		c-0.4,0-0.9-0.1-1.4-0.2s-0.9-0.3-1.3-0.5c-0.2-0.1-0.3-0.2-0.3-0.3c0-0.1-0.1-0.2-0.1-0.3V159l0.1-1.9c0-0.2,0-0.3,0-0.4
		c0-0.1,0.1-0.1,0.2-0.1c0.1,0,0.2,0,0.2,0.1c0,0.1,0.1,0.2,0.1,0.3c0,0.1,0,0.3,0.1,0.5c0,0.2,0.1,0.4,0.1,0.7
		c0.1,0.4,0.4,0.8,0.8,1.2c0.4,0.3,1,0.5,1.6,0.5c0.4,0,0.8-0.1,1.1-0.3c0.4-0.2,0.7-0.4,0.9-0.7c0.3-0.3,0.5-0.6,0.6-1
		c0.2-0.4,0.2-0.8,0.2-1.3c0-0.6-0.1-1.1-0.4-1.5s-0.6-0.9-1.1-1.3l-1.2-1.3c-0.9-1-1.3-1.9-1.3-2.8c0-0.6,0.1-1.2,0.3-1.7
		c0.2-0.5,0.5-0.9,0.9-1.3s0.9-0.6,1.4-0.8c0.5-0.2,1.1-0.3,1.8-0.3c0.4,0,0.7,0,1,0.1c0.3,0.1,0.6,0.1,0.8,0.3s0.4,0.2,0.6,0.4
		s0.2,0.3,0.2,0.4v0.1L92.8,148.8z"/>
	<path class="st0" d="M96,157.9c-0.1,0.4-0.2,0.7-0.2,0.9c0,0.3,0.1,0.5,0.3,0.5c0.4,0,0.8-0.4,1.3-1.1c0.3-0.4,0.4-0.7,0.5-0.9
		c0.1-0.2,0.2-0.3,0.2-0.3c0.1,0,0.2,0.1,0.2,0.2c0,0.2-0.3,0.8-1,1.7c-0.4,0.5-0.7,0.9-1.1,1.2c-0.4,0.3-0.7,0.4-1,0.4
		c-0.6,0-1-0.4-1-1.1c0-0.4,0.1-0.9,0.3-1.4c0.2-0.6,0.4-1.2,0.7-2l1-2.6c0.1-0.4,0.3-0.7,0.4-1c0.1-0.3,0.1-0.5,0.1-0.7
		c0-0.2,0-0.3-0.1-0.4c0-0.1-0.1-0.1-0.3-0.1c-0.2,0-0.4,0.1-0.6,0.3c-0.2,0.2-0.4,0.4-0.5,0.6c-0.2,0.2-0.3,0.4-0.5,0.6
		c-0.1,0.2-0.2,0.3-0.3,0.3c-0.1,0-0.1-0.1-0.1-0.2c0-0.1,0.1-0.2,0.2-0.4c0.1-0.2,0.3-0.5,0.6-0.8c0.8-0.9,1.5-1.4,2.2-1.4
		c0.3,0,0.5,0.1,0.7,0.2c0.2,0.2,0.2,0.4,0.2,0.7c0,0.3-0.1,0.6-0.2,1c-0.1,0.4-0.3,0.8-0.4,1.2L96,157.9z M98.1,146.5
		c0.2-0.3,0.5-0.5,0.8-0.5c0.2,0,0.4,0.1,0.5,0.2c0.1,0.1,0.2,0.3,0.2,0.6c0,0.4-0.1,0.8-0.3,1.1c-0.2,0.3-0.5,0.5-0.8,0.5
		c-0.2,0-0.4-0.1-0.5-0.2c-0.1-0.2-0.2-0.4-0.2-0.7C97.7,147.1,97.8,146.8,98.1,146.5z"/>
	<path class="st0" d="M104.3,155.1c1.1-1.7,2.1-3,3-3.9c1-0.9,1.8-1.3,2.6-1.3c0.5,0,0.8,0.1,1.1,0.3c0.3,0.2,0.4,0.5,0.4,0.9
		c0,0.4-0.2,1.1-0.5,1.9l-1.9,5.1c-0.1,0.2-0.1,0.4-0.1,0.5c0,0.3,0.1,0.5,0.4,0.5s0.5-0.1,0.7-0.3c0.2-0.2,0.5-0.6,0.9-1
		c0.3-0.4,0.5-0.6,0.5-0.8c0.1-0.2,0.2-0.3,0.3-0.3c0.1,0,0.1,0.1,0.1,0.2c0,0.1-0.1,0.3-0.3,0.6c-0.2,0.3-0.4,0.7-0.8,1.2
		c-0.4,0.6-0.8,1-1.3,1.2c-0.4,0.3-0.8,0.4-1.1,0.4c-0.6,0-0.9-0.3-0.9-1c0-0.3,0.1-0.9,0.3-1.6c0.2-0.7,0.5-1.6,0.9-2.6l1-2.6
		c0.1-0.2,0.2-0.5,0.2-0.6c0-0.2,0-0.3,0-0.4c0-0.5-0.2-0.7-0.7-0.7c-0.2,0-0.5,0.1-0.9,0.4s-0.8,0.6-1.2,1c-0.5,0.4-0.9,1-1.4,1.6
		c-0.5,0.6-0.9,1.4-1.3,2.1c-0.3,0.7-0.6,1.2-0.8,1.7s-0.3,0.9-0.4,1.3c-0.1,0.4-0.2,0.6-0.3,0.8c-0.1,0.2-0.2,0.3-0.3,0.3h-1
		c0,0-0.1,0-0.1-0.1c0,0-0.1-0.1-0.1-0.1s0-0.2,0.1-0.3l1.7-5.1c0.2-0.7,0.4-1.3,0.5-1.8c0.1-0.5,0.2-0.9,0.2-1.1
		c0-0.3-0.1-0.4-0.3-0.4c-0.2,0-0.5,0.1-0.7,0.3s-0.4,0.4-0.6,0.7c-0.2,0.2-0.4,0.5-0.5,0.7c-0.2,0.2-0.3,0.3-0.4,0.3
		c-0.1,0-0.2-0.1-0.2-0.2c0,0,0.1-0.2,0.2-0.5c0.2-0.3,0.4-0.6,0.8-1c0.9-1,1.7-1.5,2.4-1.5c0.5,0,0.8,0.3,0.8,1
		c0,0.1,0,0.3-0.1,0.7c0,0.4-0.2,0.8-0.3,1.4L104.3,155.1z"/>
	<path class="st0" d="M122.1,150.2c0.4,0.2,0.6,0.5,0.6,0.9c0,0.1-0.1,0.3-0.2,0.4c-0.1,0.1-0.3,0.2-0.5,0.2c-0.3,0-0.5-0.1-0.7-0.2
		s-0.4-0.3-0.5-0.4s-0.3-0.3-0.4-0.4c-0.1-0.1-0.3-0.2-0.5-0.2c-0.4,0-0.8,0.1-1.2,0.4c-0.4,0.3-0.9,0.7-1.3,1.2s-0.7,1.1-1,1.9
		c-0.3,0.7-0.4,1.5-0.4,2.4c0,0.9,0.2,1.7,0.6,2.2c0.4,0.5,1,0.7,1.7,0.7c0.8,0,1.6-0.4,2.4-1.3c0.3-0.3,0.4-0.5,0.5-0.7
		c0.1-0.2,0.2-0.3,0.3-0.3c0.1,0,0.2,0.1,0.2,0.2c0,0.1-0.1,0.3-0.3,0.6c-0.2,0.3-0.4,0.6-0.8,0.9c-0.5,0.5-1,1-1.6,1.2
		s-1.1,0.4-1.6,0.4c-0.5,0-0.9-0.1-1.3-0.3s-0.7-0.4-1-0.8c-0.3-0.3-0.5-0.7-0.7-1.2s-0.3-1-0.3-1.6c0-0.8,0.2-1.6,0.5-2.4
		c0.4-0.8,0.9-1.6,1.6-2.2c0.7-0.7,1.4-1.3,2.2-1.6c0.8-0.3,1.5-0.5,2.1-0.5C121.2,149.9,121.7,150,122.1,150.2z"/>
	<path class="st0" d="M126,156.8c0,0.8,0.2,1.5,0.6,1.9c0.4,0.4,0.9,0.7,1.5,0.7c0.9,0,1.7-0.4,2.5-1.3c0.2-0.3,0.4-0.5,0.5-0.7
		c0.1-0.2,0.2-0.3,0.3-0.3c0.1,0,0.1,0.1,0.1,0.2c0,0.1-0.1,0.3-0.2,0.5c-0.1,0.2-0.3,0.5-0.6,0.8c-1,1.2-2.1,1.8-3.3,1.8
		c-0.4,0-0.8-0.1-1.2-0.3c-0.4-0.2-0.7-0.4-1-0.8c-0.3-0.3-0.5-0.7-0.7-1.2s-0.2-1-0.2-1.6c0-0.8,0.2-1.6,0.5-2.4
		c0.3-0.8,0.8-1.6,1.5-2.3c0.6-0.7,1.3-1.2,1.9-1.5c0.7-0.3,1.3-0.5,1.9-0.5c0.7,0,1.3,0.2,1.8,0.6s0.7,0.9,0.7,1.6
		c0,1.1-0.6,2-1.7,2.6c-1.1,0.6-2.8,1-5,1.2C126.1,156.3,126,156.6,126,156.8z M130,154.2c0.9-0.7,1.3-1.5,1.3-2.6
		c0-0.4-0.1-0.7-0.3-1c-0.2-0.2-0.5-0.4-0.9-0.4c-0.4,0-0.7,0.1-1.1,0.3c-0.4,0.2-0.7,0.5-1.1,1c-0.4,0.4-0.7,1-1,1.6
		s-0.6,1.3-0.8,2.2C127.8,155.2,129.1,154.9,130,154.2z"/>
</g>
<g>
	<path class="st0" d="M260.7,157.5c-0.1,0.2-0.1,0.4-0.2,0.6c0,0.2-0.1,0.4-0.1,0.6c0,0.4,0.2,0.7,0.7,0.8c0.3,0,0.5,0,0.7,0
		c0.2,0,0.4,0.1,0.4,0.3c0,0.2-0.2,0.3-0.5,0.3c-0.1,0-0.4,0-0.7-0.1s-0.7-0.1-1.2-0.1c-0.9,0-1.6,0-2.1,0.1s-0.8,0.1-0.8,0.1
		c-0.3,0-0.4-0.1-0.4-0.3c0-0.2,0.2-0.3,0.5-0.3h0.3c0.3,0,0.6-0.1,0.8-0.2s0.4-0.2,0.5-0.4c0.1-0.2,0.2-0.4,0.3-0.7s0.2-0.6,0.3-1
		l2.6-8.8c0-0.2,0.1-0.3,0.1-0.4c0-0.2,0-0.3-0.1-0.3c-0.2,0-0.3,0-0.5,0.1c-0.2,0.1-0.4,0.1-0.6,0.2c-0.2,0.1-0.4,0.2-0.6,0.2
		c-0.2,0.1-0.3,0.1-0.4,0.1c-0.2,0-0.2-0.1-0.2-0.3c0-0.1,0-0.2,0.1-0.2c0.1-0.1,0.2-0.1,0.4-0.2s0.4-0.1,0.7-0.2
		c0.3-0.1,0.6-0.2,1-0.4c0.8-0.3,1.4-0.6,1.7-0.8c0.3-0.2,0.5-0.3,0.6-0.3c0.2,0,0.3,0.1,0.3,0.2c0,0.2,0,0.4-0.1,0.6
		c-0.1,0.2-0.2,0.5-0.3,0.9L260.7,157.5z"/>
	<path class="st0" d="M270.6,149.1c0.2-0.6,0.6-1.2,1-1.7c0.4-0.5,0.9-0.9,1.4-1.2c0.5-0.3,1.1-0.4,1.7-0.4c0.5,0,0.9,0.1,1.4,0.4
		c0.4,0.2,0.8,0.6,1.2,1c0.3,0.4,0.6,0.9,0.8,1.6c0.2,0.6,0.3,1.3,0.3,2c0,0.9-0.1,1.7-0.4,2.6c-0.3,0.9-0.6,1.7-1.1,2.5
		c-0.5,0.8-1,1.6-1.7,2.3c-0.7,0.7-1.4,1.3-2.2,1.8c-0.5,0.3-1,0.6-1.5,0.8c-0.5,0.2-0.9,0.4-1.3,0.5c-0.4,0.1-0.8,0.2-1.1,0.3
		c-0.3,0.1-0.5,0.1-0.7,0.1c-0.2,0-0.3-0.1-0.3-0.3c0-0.1,0.1-0.2,0.3-0.3c0.2,0,0.4-0.1,0.7-0.2c0.3-0.1,0.7-0.2,1.1-0.3
		c0.4-0.1,0.9-0.3,1.4-0.6c0.8-0.5,1.5-1,2.2-1.7c0.7-0.7,1.2-1.5,1.7-2.3s0.8-1.8,1.1-2.7c0.3-1,0.4-1.9,0.4-2.9
		c0-1.2-0.2-2.2-0.6-2.9c-0.4-0.7-0.9-1-1.6-1c-0.4,0-0.8,0.1-1.1,0.4s-0.7,0.6-1,1s-0.5,1-0.7,1.6c-0.2,0.6-0.3,1.3-0.3,2.1
		c0,0.9,0.2,1.6,0.5,2.1s0.7,0.7,1.2,0.7c0.2,0,0.3,0,0.4-0.1c0.1-0.1,0.2-0.1,0.4-0.2c0.1-0.1,0.2-0.1,0.3-0.2
		c0.1-0.1,0.1-0.1,0.2-0.1c0.1,0,0.2,0.1,0.2,0.2c0,0.1,0,0.2-0.1,0.3c-0.1,0.1-0.2,0.2-0.3,0.3c-0.1,0.1-0.3,0.2-0.5,0.3
		c-0.2,0.1-0.4,0.1-0.7,0.1c-0.4,0-0.8-0.1-1.1-0.3c-0.4-0.2-0.7-0.4-0.9-0.8c-0.3-0.3-0.5-0.7-0.7-1.2c-0.2-0.5-0.2-1-0.2-1.6
		C270.2,150.4,270.3,149.8,270.6,149.1z"/>
	<path class="st0" d="M287.3,157.5c-0.1,0.2-0.1,0.4-0.2,0.6c0,0.2-0.1,0.4-0.1,0.6c0,0.4,0.2,0.7,0.7,0.8c0.3,0,0.5,0,0.7,0
		c0.2,0,0.3,0.1,0.3,0.3c0,0.2-0.2,0.3-0.5,0.3c-0.1,0-0.4,0-0.7-0.1s-0.7-0.1-1.2-0.1c-0.9,0-1.6,0-2.1,0.1s-0.8,0.1-0.8,0.1
		c-0.3,0-0.4-0.1-0.4-0.3c0-0.2,0.2-0.3,0.5-0.3h0.3c0.3,0,0.6-0.1,0.8-0.2c0.2-0.1,0.4-0.2,0.5-0.4c0.1-0.2,0.2-0.4,0.3-0.7
		c0.1-0.3,0.2-0.6,0.3-1l2.6-8.8c0-0.2,0.1-0.3,0.1-0.4c0-0.2,0-0.3-0.1-0.3c-0.2,0-0.3,0-0.5,0.1c-0.2,0.1-0.4,0.1-0.6,0.2
		c-0.2,0.1-0.4,0.2-0.6,0.2c-0.2,0.1-0.3,0.1-0.4,0.1c-0.2,0-0.2-0.1-0.2-0.3c0-0.1,0-0.2,0.1-0.2c0.1-0.1,0.2-0.1,0.4-0.2
		c0.2-0.1,0.4-0.1,0.7-0.2c0.3-0.1,0.6-0.2,1-0.4c0.8-0.3,1.4-0.6,1.7-0.8c0.3-0.2,0.5-0.3,0.6-0.3c0.2,0,0.3,0.1,0.3,0.2
		c0,0.2,0,0.4-0.1,0.6c-0.1,0.2-0.2,0.5-0.3,0.9L287.3,157.5z"/>
	<path class="st0" d="M297.2,149.1c0.2-0.6,0.6-1.2,1-1.7c0.4-0.5,0.9-0.9,1.4-1.2c0.5-0.3,1.1-0.4,1.7-0.4c0.5,0,0.9,0.1,1.4,0.4
		c0.4,0.2,0.8,0.6,1.2,1c0.3,0.4,0.6,0.9,0.8,1.6c0.2,0.6,0.3,1.3,0.3,2c0,0.9-0.1,1.7-0.4,2.6c-0.3,0.9-0.6,1.7-1.1,2.5
		c-0.5,0.8-1,1.6-1.7,2.3s-1.4,1.3-2.2,1.8c-0.5,0.3-1,0.6-1.5,0.8c-0.5,0.2-0.9,0.4-1.3,0.5c-0.4,0.1-0.8,0.2-1.1,0.3
		c-0.3,0.1-0.5,0.1-0.7,0.1c-0.2,0-0.3-0.1-0.3-0.3c0-0.1,0.1-0.2,0.3-0.3s0.4-0.1,0.7-0.2c0.3-0.1,0.7-0.2,1.1-0.3
		c0.4-0.1,0.9-0.3,1.4-0.6c0.8-0.5,1.5-1,2.2-1.7s1.2-1.5,1.7-2.3c0.5-0.9,0.8-1.8,1.1-2.7c0.3-1,0.4-1.9,0.4-2.9
		c0-1.2-0.2-2.2-0.6-2.9c-0.4-0.7-0.9-1-1.6-1c-0.4,0-0.8,0.1-1.1,0.4s-0.7,0.6-1,1c-0.3,0.4-0.5,1-0.7,1.6
		c-0.2,0.6-0.3,1.3-0.3,2.1c0,0.9,0.2,1.6,0.5,2.1s0.7,0.7,1.2,0.7c0.2,0,0.3,0,0.4-0.1c0.1-0.1,0.2-0.1,0.4-0.2
		c0.1-0.1,0.2-0.1,0.3-0.2c0.1-0.1,0.1-0.1,0.2-0.1c0.1,0,0.2,0.1,0.2,0.2c0,0.1,0,0.2-0.1,0.3s-0.2,0.2-0.4,0.3
		c-0.1,0.1-0.3,0.2-0.5,0.3c-0.2,0.1-0.4,0.1-0.7,0.1c-0.4,0-0.8-0.1-1.1-0.3c-0.4-0.2-0.7-0.4-0.9-0.8c-0.3-0.3-0.5-0.7-0.7-1.2
		s-0.2-1-0.2-1.6C296.8,150.4,296.9,149.8,297.2,149.1z"/>
</g>
</svg>
