<?xml version="1.0" encoding="utf-8"?>
<!-- Generator: Adobe Illustrator 21.1.0, SVG Export Plug-In . SVG Version: 6.00 Build 0)  -->
<svg version="1.1" id="Layer_1" xmlns="http://www.w3.org/2000/svg" xmlns:xlink="http://www.w3.org/1999/xlink" x="0px" y="0px"
	 viewBox="0 0 960 960" style="enable-background:new 0 0 960 960;" xml:space="preserve">
<g>
	<path d="M0,0c320,0,640,0,960,0c0,320,0,640,0,960c-320,0-640,0-960,0C0,640,0,320,0,0z M916.8,480.5c0-144,0-288,0.1-431.9
		c0-4-0.8-5.4-5.1-5.4c-287.8,0.1-575.6,0.1-863.4,0c-4.3,0-5.2,1.4-5.2,5.4c0.1,287.6,0.1,575.3,0,862.9c0,4,0.8,5.4,5.1,5.4
		c287.8-0.1,575.6-0.1,863.4,0c4.3,0,5.2-1.4,5.2-5.4C916.8,767.8,916.8,624.2,916.8,480.5z"/>
	<path d="M605.4,480.8c-11-22-21.6-43.4-32.7-65.7c-10.9,22.4-21.4,43.9-32.4,66.3c-4.4-9-8.4-17.1-12.5-25.3
		c-21.4-43.6-42.9-87.2-64.2-130.9c-1.6-3.4-3.5-4.8-7.2-4.3c-5.1,0.6-11.3-2.2-14.3,4.6c3.4,6.6,7.2,13.1,10.1,19.9
		c15.8,38.1,3.2,83.2-29.9,107.9c-34,25.4-80.2,24.8-112.7-1.5c-16.4-13.2-27-30.1-32.1-50.5c-0.9-3.5-2.1-4.6-5.6-4.4
		c-5.3,0.3-11.8-1.7-15.6,0.8c-3.4,2.1-3.7,9-5.5,13.7c-14.3,37.5-47.7,60.5-88,60.5c-18,0-36,0-54.4,0c0-61.3,0-122.3,0-183.9
		c1.7-0.1,3.4-0.3,5.2-0.3c17,0,34,0,51,0c42.7,0,79.8,29.5,89.3,71.2c0.9,3.8,2.1,5.4,6.1,5c5-0.4,11.2,1.6,14.6-0.7
		c3.2-2.2,3.6-8.7,5.1-13.3c18.4-54.1,81-78.4,131.2-51c2,1.1,4.1,2.2,6.4,3.6c3.9-4.1,7.6-8.3,11.8-12.2c1.5-1.4,4-2.5,6-2.6
		c14-0.2,28,0,42-0.2c3.9-0.1,5.8,1.3,7.5,4.8c17.8,36.5,35.8,72.9,53.7,109.4c0.4,0.9,0.9,1.7,1.9,3.4c4.6-9.4,9.1-18,13.1-26.8
		c0.6-1.3-0.6-3.8-1.5-5.5c-12.6-25.9-25.3-51.7-37.9-77.6c-1.1-2.2-2.1-4.5-3.4-7.4c11.9,0,23.2-0.1,34.4,0.2
		c1.3,0,2.9,1.9,3.6,3.3c7.9,15.8,15.7,31.6,23.9,48.3c1-1.9,1.8-3.2,2.5-4.6c7.2-14.6,14.4-29.3,21.8-43.8c0.7-1.4,2.7-3.2,4.1-3.2
		c11.1-0.3,22.3-0.1,34.3-0.1c-3.6,7.5-7,14.5-10.4,21.4c-10.6,21.5-21.1,43-31.8,64.5c-1.4,2.8-1.5,5,0,7.9c4,7.8,7.7,15.7,12,24.4
		c1-1.8,1.6-2.9,2.1-4c18-36.6,36.1-73.1,54-109.8c1.7-3.5,3.7-4.7,7.6-4.6c13.5,0.2,27,0.2,40.5,0c3.8-0.1,6.5,1.1,9.2,3.8
		c32,32.3,64.2,64.5,96.3,96.7c1.1,1.1,2.3,2.2,4.3,4c0-35.2,0-69.4,0-104c11.1,0,21.7,0,32.6,0c0,60.9,0,121.7,0,183.1
		c-34.3-34.7-68.3-69.1-102.4-103.6c-0.7,0.5-1.3,0.9-2,1.4c0,34.2,0,68.3,0,102.7c-11.1,0-21.5,0-32.8,0c0-2,0-4.1,0-6.2
		c0-41.5-0.1-83,0.1-124.5c0-4.2-0.8-7.5-4.2-10c-0.9-0.7-1.9-1.5-2.5-2.5c-5-8.1-12.9-8.5-21-7.4c-1.6,0.2-3.6,2.1-4.4,3.7
		c-11.9,23.8-23.6,47.8-35.3,71.7c-13,26.4-26,52.9-39,79.3C607.4,477.2,606.6,478.6,605.4,480.8z M393.9,327.6
		c-15.8-10.2-49.4-12.3-71.7,13.2c-16.6,18.9-19.6,52.7-5.8,68.6C342.2,382.2,367.9,355,393.9,327.6z M418,350.4
		c-26.1,27.5-51.7,54.6-77.5,81.9c17.5,10.4,47.4,9.7,67.4-9.9C427.5,403.3,432,373.2,418,350.4z M220.7,363.6
		c-0.6-5.7-4.8-14.2-10.1-20.8c-18.2-22.8-43.3-23.9-69.4-21.8c0,14.2,0,28.3,0,42.7C168,363.6,194.3,363.6,220.7,363.6z
		 M141.4,397.2c0,14.2,0,27.9,0,41.6c53.1,5.3,72.7-19.1,79.1-41.6C194.2,397.2,168,397.2,141.4,397.2z"/>
	<path d="M563.7,85.8c17.3,35.1,34.1,69.4,51.2,104.1c1.6-0.7,3.1-1.3,4.5-2.1c16.1-8.7,32.2-17.5,48.4-26c2.8-1.5,6.3-2.3,9.4-2.3
		c14-0.2,28-0.1,42-0.1c1.8,0,3.6,0,5.7,0c0-13.6,0-26.6,0-40.5c-18.8,0-37.7,0-56.8,0c0-11.3,0-21.9,0-32.7c49,0,97.8,0,147,0
		c0,10.6,0,21.3,0,32.5c-18.9,0-37.7,0-56.8,0c0,13.7,0,26.9,0,40.7c6.1,0,12.1,0,18,0c11.7,0,23.3,0.1,35,0c2.8,0,4,0.9,4,3.6
		c0,9.6,0,19.3,0,29.5c-19.1,0-37.8,0-57.1,0c0,26,0,51.4,0,77.2c-11.1,0-21.6,0-32.7,0c0-25.3,0-50.7,0-76.6
		c-2.1-0.1-3.7-0.3-5.3-0.3c-7.2,0-14.4,0.6-21.5-0.1c-13-1.3-24.3,2.2-35.3,9.2c-10.7,6.8-22,12.3-33.5,18.6
		c8,16.5,15.9,32.7,24.2,49.6c-10.6,0-20.3,0.1-30.1-0.2c-1.3,0-2.9-1.9-3.6-3.3c-4.4-8.4-8.5-17-12.7-25.5
		c-1.1-2.2-2.4-4.3-3.8-6.9c-10.9,5.9-21.8,11.3-32,17.7c-6.1,3.9-10.7,3.5-16.6-0.1c-10.2-6.2-20.9-11.6-32.2-17.7
		c-4.7,9.4-9.3,18.6-13.9,27.8c-0.2,0.4-0.4,0.9-0.6,1.4c-1.6,5.4-4.8,7.4-10.6,6.9c-7.9-0.6-16-0.2-25-0.2
		c8.3-16.9,16.2-33.1,24.4-49.8c-7.3-4-14.3-7.8-21.3-11.6c-9.7-5.2-18.8-12.4-29.2-15.1c-10.2-2.6-21.5-0.8-32.3-0.8
		c-14.1,0-28.2,0-42.7,0c0,14.9,0,29.3,0,44.3c27.3,0,54.6,0,82.2,0c0,11.1,0,21.7,0,32.7c-38.4,0-76.8,0-115.7,0
		c0-25.3,0-50.7,0-76.6c-9.4,0-18.2,0-27.3,0c1.1,4.5,2.5,8.9,3.2,13.4c5.4,32-19.3,62.7-51.7,63.3c-31.8,0.6-63.7,0.1-95.5,0.1
		c-0.6,0-1.3-0.2-2.1-0.3c0-61.1,0-122.1,0-183.6c1.5-0.1,3.1-0.2,4.7-0.2c26.5,0,53-0.1,79.5,0.1c37.4,0.2,63.1,35.3,52.2,71.2
		c-0.1,0.5-0.2,1-0.3,1.8c12.2,0,24.2,0,37,0c0-24,0-48.2,0-72.8c39.1,0,77.5,0,116.1,0c0,10.9,0,21.5,0,32.7c-27.3,0-54.5,0-82.2,0
		c0,13.6,0,26.7,0,40.5c1.9,0,3.8,0,5.7,0c24.2,0,48.3-0.1,72.5,0.1c2.5,0,5.3,0.7,7.5,1.9c17.9,9.5,35.7,19.2,54.2,29.2
		C529.3,155.7,546.3,121.2,563.7,85.8z M197.7,236.7c21.4,0,42.2,0.1,63-0.1c2.7,0,5.6-0.9,8.2-2c9.5-4.3,14.3-14.4,12.1-24.9
		c-1.9-9.4-10.8-16.9-20.8-16.9c-20.2-0.2-40.3-0.1-60.5,0c-0.6,0-1.2,0.3-2,0.4C197.7,207.7,197.7,221.9,197.7,236.7z M197.8,118.7
		c0,13.8,0,27,0,40.3c1.5,0.1,2.6,0.3,3.8,0.3c17.1,0,34.3,0.1,51.4,0c12.4-0.1,21.1-8.6,21.1-20.4c0-11.7-8.9-20.1-21.3-20.2
		c-14.5-0.1-29,0-43.4,0C205.6,118.7,201.8,118.7,197.8,118.7z M537.6,204.2c8.5,4.6,16.6,9,24.8,13.4c0.6,0.3,1.7,0.4,2.3,0.1
		c8.3-4.5,16.5-9,24.9-13.6c-8.7-17.7-17.1-34.9-25.8-52.8C554.8,169.3,546.3,186.5,537.6,204.2z"/>
	<path d="M415.9,672.8c0-25,0-49.6,0-74.6c-25.3,0-50.2,0-75.7,0c0,24.7,0,49.4,0,74.5c-11.1,0-21.7,0-32.8,0c0-24.8,0-49.5,0-74.7
		c-19.3,0-38.1,0-57.2,0c0-11.2,0-21.9,0-33.1c18.8,0,37.6,0,56.7,0c0-14.4,0-28.3,0-42.9c-18.8,0-37.6,0-56.8,0
		c0-11.2,0-21.8,0-32.7c49.1,0,98,0,147.1,0c0,10.8,0,21.4,0,32.4c-18.9,0-37.7,0-56.9,0c0,14.5,0,28.5,0,42.8c25,0,49.9,0,75.3,0
		c0-25,0-49.9,0-75.1c11.1,0,21.7,0,33.1,0c0,1.8,0,3.8,0,5.7c0,21.3,0.1,42.7-0.1,64c0,3.9,0.9,6.3,4.6,8.2
		c11,5.6,21.7,11.6,32.5,17.5c2.6,1.4,4.7,1.6,7.4,0.1c10.7-6.1,21.5-12,32.4-17.8c3.2-1.7,4.4-3.6,4.4-7.4
		c-0.2-21.7-0.1-43.3-0.1-65c0-1.6,0-3.3,0-5.3c10.9,0,21.5,0,32.7,0c0,24.8,0,49.7,0,75c10.6,0,20.7,0,31.3,0c0-24.9,0-49.8,0-75.1
		c38.8,0,77.1,0,115.8,0c0,10.6,0,21.3,0,32.7c-1.6,0.1-3.4,0.2-5.1,0.2c-24,0-48,0.1-72-0.1c-4,0-5.6,0.8-5.4,5.2
		c0.3,10.8,0.1,21.7,0.1,32.5c0,1.5,0.2,2.9,0.3,4.9c27.5,0,54.7,0,82.2,0c0,11.3,0,22,0,33.3c-27.5,0-54.8,0-82.3,0
		c0,14.3,0,28,0,42.3c27.5,0,54.8,0,82.3,0c0,11.1,0,21.7,0,32.6c-38.5,0-76.8,0-115.6,0c0-24.8,0-49.5,0-74.6
		c-10.6,0-20.7,0-31.4,0c0,24.8,0,49.5,0,74.5c-11.2,0-21.7,0-32.9,0c0-23.3,0-46.5,0-70.6c-9.3,5.1-18.2,8.9-25.9,14.5
		c-10.1,7.4-18.8,7.3-29,0.1c-7.8-5.5-16.8-9.4-26.1-14.5c0,23.9,0,47.1,0,70.5C437.7,672.8,427.2,672.8,415.9,672.8z"/>
	<path d="M295.5,690.8c10.7,0,21.3,0,32.4,0c0,24.6,0,49.1,0,75.3c3.1-3.6,5.3-5.9,7.3-8.4c17.8-21.3,35.6-42.7,53.5-64
		c1.2-1.4,3.1-3,4.7-3.1c13.1-0.2,26.2-0.1,40.8-0.1C408,721.7,382.6,752,357,782.6c8.4,10,16.7,19.9,25,29.9
		c7.2,8.6,14.2,17.2,21.5,25.7c1.2,1.4,3.1,3,4.7,3.1c14.5,0.2,28.9,0.1,44,0.1c0-50.3,0-100.2,0-150.6c2.1-0.1,3.7-0.3,5.3-0.3
		c38,0,76,0,114,0c46,0,83,30.3,92.1,75.4c10.4,51.8-28.7,104.4-81.5,108.1c-21.4,1.5-42.9,0.2-65.1,0.2c0-49.8,0-99.8,0-150.1
		c-10.8,0-20.9,0-31.5,0c0,50,0,99.9,0,150.7c-2.4,0-4.3,0-6.3,0c-27.5,0-55-0.1-82.5,0.1c-4,0-6.4-1.3-8.8-4.3
		c-18.6-22.4-37.4-44.8-56.1-67.1c-0.9-1.1-1.9-2.1-3.7-4c0,25.6,0,50.1,0,75c-11.1,0-21.7,0-32.6,0
		C295.5,813.2,295.5,752.2,295.5,690.8z M550,841.1c10.9,0,21.7,1.2,32.1-0.3c22.8-3.2,38.9-16.3,46.7-38
		c7.7-21.4,3.9-41.4-10.8-58.9c-18.1-21.6-42.5-22.1-67.9-20.2C550,763,550,802.2,550,841.1z"/>
</g>
</svg>
