<?xml version="1.0" encoding="utf-8"?>
<!-- Generator: Adobe Illustrator 21.1.0, SVG Export Plug-In . SVG Version: 6.00 Build 0)  -->
<svg version="1.1" id="Layer_1" xmlns="http://www.w3.org/2000/svg" xmlns:xlink="http://www.w3.org/1999/xlink" x="0px" y="0px"
	 viewBox="0 0 370.3 67.4" style="enable-background:new 0 0 370.3 67.4;" xml:space="preserve">
<g>
	<path d="M193.3,29.1c-0.6,0.3-1.2,0.6-2,1c-0.8,0.3-1.5,0.7-2.3,1.1c-0.8,0.4-1.6,0.8-2.3,1.3c-0.7,0.5-1.3,1.1-1.8,1.7
		c-0.5,0.6-0.7,1.3-0.8,2.1c0.4-0.4,0.9-0.6,1.5-0.8c0.6-0.2,1.2-0.3,1.9-0.5c0.7-0.1,1.3-0.3,2-0.5c0.7-0.2,1.3-0.6,2-1
		c0.6-0.5,1.2-1.1,1.7-2c0.5-0.8,1-2,1.3-3.4C194.2,28.4,193.8,28.7,193.3,29.1z"/>
	<path d="M163,27.5c-0.6,3.3,2.9,3.6,7.8,0.3c4.9-3.3,9-7.4,13.1-10.4c0,0-2.6,0.2-4.9,1.4c-2.2,1.2-9.8,8.1-12.4,9.5
		C164,29.6,163,27.5,163,27.5z"/>
	<path d="M205.2,36.7c0.6-3.3-2.9-3.6-7.8-0.3c-4.9,3.3-9,7.4-13.1,10.4c0,0,2.6-0.2,4.9-1.4c2.2-1.2,9.8-8.1,12.4-9.5
		C204.3,34.6,205.2,36.7,205.2,36.7z"/>
	<path d="M207,34.1c-0.9-3.3-4.7-3.5-7.8-2.3c-2.5,1-5,2.9-7.2,4.8v0c-0.3,0.2-0.5,0.4-0.8,0.6c-0.2,0.2-0.4,0.4-0.7,0.6
		c0-0.1,0-0.2,0-0.3c0.1-0.7-0.1-1.2-0.5-1.6c-0.4-0.4-1-0.6-1.9-0.6c-0.9,0-2,0.3-3.3,0.8c0.2,0,0.4,0.1,0.6,0.4
		c0.2,0.3,0.2,0.6,0.3,1c0,0.4,0,0.9,0,1.4c-0.1,0.5-0.2,1-0.3,1.5c-0.2,0.5-0.4,0.9-0.6,1.3c-0.3,0.4-0.6,0.6-0.9,0.7
		c-0.5,0.2-0.9,0.1-1.2-0.1c-0.3-0.3-0.5-0.7-0.6-1.3c-0.1-0.6,0-1.3,0.1-2.1c0.2-0.8,0.4-1.6,0.8-2.5c0.4-0.8,0.9-1.7,1.5-2.5
		c0.6-0.8,1.3-1.5,2.2-2.1c0.4-0.3,0.7-0.6,0.7-0.8c0-0.2-0.2-0.2-0.7,0c-0.8,0.4-1.4,0.4-1.8,0.1c-0.4-0.3-0.6-0.8-0.7-1.5
		c-0.1-0.7-0.1-1.5,0.1-2.5c0.2-0.9,0.4-1.9,0.8-2.8c0.4-0.9,0.8-1.7,1.3-2.4c0.5-0.7,1.1-1.2,1.6-1.4c0.4-0.1,0.6,0,0.7,0.3
		c0.1,0.3,0.2,0.7,0.1,1.3c0,0.6-0.2,1.2-0.3,1.9c-0.2,0.7-0.4,1.4-0.6,2.1c-0.2,0.7-0.5,1.3-0.8,1.8c-0.3,0.6-0.6,0.9-0.8,1.2
		c0.5,0,1,0,1.5-0.1l0,0c1.6,0,5.8-2.6,6.5-6c0.2-0.8,0.1-1.8-0.1-2.5c-1-3.7-5.2-3.9-8.7-2.6c-2.8,1.1-5.6,3.3-8,5.4v0
		c-0.3,0.2-0.6,0.5-0.9,0.7c-3.6,2.9-6.4,5.8-9.7,6.6c-3.4,0.9-5.8-0.6-5.3-3.3c0.6-3,2.8-3.9,4.4-4c-0.5,0.3-0.8,0.8-0.8,1.4
		c0,0.7,0.6,1.2,1.3,1.1c0.7-0.2,1.3-0.9,1.3-1.6c0-0.1,0-0.3-0.1-0.4c0,0,0,0,0,0c0,0,0-0.1,0-0.1c0,0,0,0,0-0.1
		c-0.2-0.3-0.6-0.8-1.9-0.9c-1.6,0-4.7,1.4-5.5,4.7c-0.2,0.8-0.1,1.8,0.1,2.5c1,3.7,5.2,3.9,8.7,2.6c2.8-1.1,5.6-3.3,8-5.4v0
		c0.3-0.2,0.6-0.5,0.9-0.7c0.9-0.8,1.8-1.5,2.7-2.3c-0.5,0.6-0.9,1.2-1.2,1.8c-0.5,0.9-0.8,1.7-0.9,2.5c-0.2,0.8-0.2,1.5,0,2.2
		c0.1,0.7,0.4,1.2,0.9,1.6c0.3,0.2,0.6,0.4,0.9,0.5c0.3,0.1,0.6,0.1,0.8,0.1c0.3,0,0.5-0.1,0.8-0.1c-0.2,0.2-0.4,0.3-0.6,0.4
		c-0.2,0.1-0.5,0.2-0.7,0.4c-0.3,0.1-0.5,0.3-0.9,0.5c-0.3,0.2-0.6,0.4-0.9,0.7c-0.6,0.6-1.1,1.3-1.5,2.1c-0.4,0.8-0.6,1.6-0.7,2.4
		c-0.1,0.5-0.1,0.9,0,1.3c-0.1,0.6,0,1.3,0.1,1.9c0.9,3.3,4.7,3.5,7.8,2.3c2.5-1,5-2.9,7.2-4.8v0c0.3-0.2,0.5-0.4,0.8-0.6
		c3.2-2.6,5.7-5.2,8.7-5.9c3.1-0.8,5.2,0.5,4.7,2.9c-0.6,2.8-2.7,3.6-4.1,3.6c0.5-0.2,0.9-0.8,0.9-1.3c0-0.7-0.5-1.1-1.2-0.9
		c-0.7,0.1-1.2,0.8-1.2,1.4c0,0.1,0.1,0.4,0.1,0.4c0,0.2,0.4,0.9,1.8,1c1.4,0,4.2-1.2,4.9-4.2C207.2,35.6,207.2,34.7,207,34.1z"/>
</g>
<g>
	<g>
		<path d="M251.8,13.1l10.3,51.8h-9.3L251,53.7h-8.6l-2.2,11.2h-9.5l11.7-51.8H251.8z M250.6,54.5l0.2,1.1h-6.2l-2.2,11.2h-9.5
			l0.2-1.2h7.9l2.2-11.2H250.6z M244.7,44.6h4.5l-2.2-10L244.7,44.6z M247,38.9l0.7,3.3l-0.4,1.7h-1.5L247,38.9z M254,15.1
			l10.3,51.8h-9.3l-0.2-1.2h8.3l-10-50.6H254z"/>
	</g>
	<g>
		<path d="M305.1,13v51.9h-8.8V36.6l-6.5,19.1l0.1,0.2h-0.2h-7.9h-0.2l0.1-0.2l-6.5-19.1v28.3h-8.8V13h0.8h8l10.5,30.9L296.3,13
			H305.1z M276.2,42.8c0.2,0.6,0.4,1.1,0.6,1.7c0.2,0.5,0.4,1.1,0.6,1.7v20.8h-8.8v-1.2h7.6V42.8z M285.4,40.9L276.6,15h0.8
			l8.4,24.8L285.4,40.9z M292,57.7l0.1,0.1h-8.2l0.1-0.1l-0.3-1h7.2l-0.1-0.1l4.6-13.4v4.7L292,57.7z M307.3,15v51.9h-8.9v-1.2h7.6
			V15H307.3z"/>
	</g>
	<g>
		<path d="M337.5,64.9h-25.2V13.1h25.2v8.9h-16.4v15h10.2v7.1h-10.2v11.3v0.9h1.5h14.8V64.9z M338.5,58.4h1.2v8.5h-25.2v-1.2h23.9
			V58.4z M339.7,15.1V24h-16.3v11.7h-1.2V22.9h16.3v-7.8H339.7z M333.5,39v7.1h-10.1v9.5h-1.2V45h10.1v-6H333.5z"/>
	</g>
	<g>
		<path d="M216.1,64.9h1.5h3.3c1.6,0,2.7-0.4,3-1.1c0.4-0.8,0.6-1.6,0.6-2.5V13h-8.8v35.6v3.5v2.1c0,0.6-0.1,1-0.3,1.3
			c-0.2,0.3-0.6,0.4-1.3,0.4h-4.4c-0.7,0-1.2-0.1-1.4-0.4c-0.2-0.3-0.3-0.7-0.3-1.3v-6.8l-8.8,2.4v11.5c0,0.9,0.2,1.8,0.6,2.5
			c0.4,0.8,1.4,1.1,3,1.1H216.1z"/>
		<rect x="209.1" y="49.1" width="1.2" height="5.3"/>
		<path d="M225.5,15v47c0,0.5,0,0.9-0.1,1.4c-0.1,0.4-0.2,0.8-0.5,1.2c-0.3,0.3-0.6,0.6-1.1,0.8c-0.5,0.2-1.1,0.3-1.9,0.3h-3.3H217
			h-13.2c-0.9,0-1.5-0.1-1.9-0.3c0.3,0.4,0.6,0.8,1.1,1.1c0.5,0.3,1.2,0.4,2.2,0.4h13.1h1.5h3.3c0.8,0,1.5-0.1,2-0.3
			c0.5-0.2,0.8-0.5,1.1-0.8c0.2-0.4,0.4-0.8,0.5-1.2c0.1-0.4,0.1-0.9,0.1-1.4V15H225.5z"/>
	</g>
	<g>
		<path d="M369.1,17.5v8.5l1.2-0.3v-7.1c0-0.7-0.1-1.4-0.3-2c-0.2-0.6-0.6-1.1-1.4-1.3c0.2,0.3,0.3,0.7,0.3,1.1
			C369.1,16.8,369.1,17.2,369.1,17.5z"/>
		<path d="M353.2,23.1c-0.2,0.3-0.3,0.7-0.3,1.3v2.8V30v2.5h1.2v-1.4v-2.8v-2.8c0-0.6,0.1-1,0.3-1.3c0.2-0.3,0.6-0.4,1.4-0.4h2.6
			v-1.1h-3.9C353.8,22.8,353.3,22.9,353.2,23.1z"/>
		<path d="M358.4,43.4h-10.6c-0.7,0-1.4-0.1-2-0.4c0.3,0.4,0.6,0.8,1.1,1.1c0.5,0.3,1.2,0.4,2.1,0.4h9.4V43.4z"/>
		<path d="M368.7,36c0.2,0.3,0.3,0.7,0.3,1.1c0.1,0.4,0.1,0.8,0.1,1.1V49v1.7v10.9c0,0.5,0,0.9-0.1,1.3c-0.1,0.4-0.2,0.8-0.5,1.2
			c-0.2,0.4-0.6,0.6-1.1,0.8c-0.5,0.2-1.1,0.3-1.9,0.3h-13H351h-3.2c-0.7,0-1.4-0.1-2-0.4c0.3,0.4,0.6,0.8,1.1,1.1
			c0.5,0.3,1.2,0.4,2.1,0.4h3.2h1.6h13c1.6,0,2.6-0.4,3-1.1c0.4-0.8,0.6-1.6,0.6-2.5V51.8v-1.6V39.3c0-0.7-0.1-1.4-0.3-2
			C369.9,36.7,369.4,36.3,368.7,36z"/>
		<rect x="352.9" y="50.2" width="1.2" height="4.2"/>
		<path d="M368.2,26.3v-9.6c0-0.5,0-0.9-0.1-1.3c-0.1-0.4-0.2-0.8-0.5-1.2c-0.2-0.4-0.6-0.6-1-0.8c-0.5-0.2-1.1-0.3-1.9-0.3h-3.6
			h-1.2h-8.2h-4.9c-0.8,0-1.5,0.1-1.9,0.3c-0.5,0.2-0.8,0.5-1,0.8c-0.2,0.4-0.4,0.7-0.5,1.2c-0.1,0.4-0.1,0.9-0.1,1.3v9.7v2.9v9.6
			c0,0.5,0,0.9,0.1,1.4c0.1,0.4,0.2,0.8,0.5,1.2c0.2,0.3,0.6,0.6,1,0.8c0.5,0.2,1.1,0.3,1.9,0.3h11.1c0.7,0,1.2,0.1,1.3,0.4
			c0.2,0.3,0.3,0.7,0.3,1.3v4v1.7v3.9c0,0.6-0.1,1-0.3,1.3c-0.2,0.3-0.6,0.4-1.3,0.4H356h-0.5h-1.9c-0.7,0-1.1-0.1-1.3-0.4
			c-0.2-0.3-0.3-0.7-0.3-1.3v-5.1l-8.8,2.4v9.7c0,0.5,0,0.9,0.1,1.4c0.1,0.4,0.2,0.8,0.5,1.2c0.2,0.3,0.6,0.6,1,0.8
			c0.5,0.2,1.1,0.3,1.9,0.3h3.3h1.5h13c0.8,0,1.5-0.1,1.9-0.3c0.5-0.2,0.8-0.5,1-0.8c0.2-0.3,0.4-0.7,0.5-1.2
			c0.1-0.4,0.1-0.9,0.1-1.4V49.9v-1.7V37.3c0-0.5,0-0.9-0.1-1.3c-0.1-0.4-0.2-0.8-0.5-1.2s-0.6-0.6-1-0.8c-0.5-0.2-1.1-0.3-1.9-0.3
			h-11.1c-0.7,0-1.2-0.1-1.3-0.4c-0.2-0.3-0.3-0.7-0.3-1.2v-2.8v-2.9v-2.8c0-0.6,0.1-1,0.3-1.3c0.2-0.3,0.6-0.4,1.3-0.4h4.2
			c0.7,0,1.1,0.1,1.3,0.4c0.2,0.3,0.3,0.7,0.3,1.3v5L368.2,26.3z"/>
	</g>
</g>
<path d="M111.4,3.6C109.9,1.3,106.3,0,102,0c-4.6,0-9.5,1.2-13.4,2.8c-3.8,1.5-8.2,3.9-13,7.3c-1.6-0.3-3.4-0.4-5.3-0.4
	c-14,0-32.7,5.3-48.1,16.5C6.2,38,0,49.3,0,57.1c0,7.4,5.9,10.3,14.3,10.3c15.7,0,30.4-14.2,42.8-31.1c7-9.3,11.8-15.8,16.8-20.8
	c0.9-1.1,2-2,3.1-3.1c3.1,1.9,4.1,5.3,3,9.6c-1.5,6.2-7.6,11.5-13.4,12.3c-1.2-0.1-2.3-0.4-4.1-0.4c-1.3,0-3.5,0.1-3.6,1.1
	c-0.1,0.8,1.5,1.1,3.2,1.1c1.5,0,2.3-0.1,3.9-0.4c2.6-0.3,8.2,1.9,7.8,8.5c-0.5,11.1-10.7,20.7-19.5,20.7c-2.4,0-5.5-0.9-5.1-3.2
	c0.3-1.5,1.9-2.2,3.2-2.7c1.6-0.7,3.5-1.8,3.5-3.9c0-2.2-1.9-3.2-4.2-3.2c-4.1,0-8.4,3.2-8.4,7.6c0,5.1,5.8,6.6,10.9,6.6
	c13.6,0,25.9-8,26.5-19.3C81.2,41.1,77.3,36.3,69,35v-0.1C75.5,33.9,85,29.4,86.2,22c1.1-5.5-2.4-9.2-7.4-11.1
	c3.8-3.1,7.6-5.5,10.7-6.9c4.1-1.9,8.8-3,12.7-3c4.1,0,7.3,1.3,8.8,3.1c0.4,0.4,0.5,0.8,0.8,0.7C112,4.7,111.8,4.3,111.4,3.6z
	 M70.5,13.9c-6.3,5.1-16.2,14.7-25,26.2C35.1,53.8,26.6,66.2,14.2,66.2c-5.9,0-8.8-3.6-8.8-8.9c0-7,4.5-18.8,19.2-30.1
	c14.3-10.9,32-16.2,45-16.2c1.6,0,3.1,0.1,4.3,0.4C72.8,12.2,71.6,13,70.5,13.9z"/>
<path d="M191,1.1c-9.4,0.2-21.3,7.8-28.4,13.5c-8.7,7-15.3,13.2-23.2,22.5c-2.8,3.3-7.4,9.2-9,11.2c-2.5,2.4-5.2,4.9-6.6,6.1
	c-1.6,1.5-3.6,3.2-5.7,4.8c-1.6,1.2-3.5,2.5-4.5,3.1c-1,0.6-2.7,1.2-3.5,0.7c-0.8-0.7-0.3-1.9,0.1-3.1c0.5-1.1,1.4-2.6,2-3.6
	c3.4-5,8.2-12.1,15.8-21.3c4.8-5.8,13.5-16.2,19.2-18.9c-0.1-0.5-0.6-0.9-1.7-0.8c-1.5,0.1-3.4,0.8-6.9,3.5
	c-3.7,2.8-9.1,8.1-12.9,12.5c-6.7,7.7-12.4,15-14,17c-2.8,2.4-6.8,5.9-7.3,6.4c0,0-0.1,0.1-0.1,0.1c0,0,0,0,0,0
	c-1.8,1.6-4.8,4-6.9,5.5c-5,3.4-8.9,4.2-10.3,4.2H87c-1.6,0-2.5-0.9-2.5-2.6c0-0.7,0.2-1.7,0.7-2.6c2.6-0.7,6.5-2,9.8-3.6
	c3.4-1.7,7-4,7.3-6.9c0.1-1.5-0.8-3.1-3.3-3.1c-4.2,0-10.4,3.1-14.2,6.1c-2.8,2.2-6,6-6.1,9.8c-0.1,3,2,4.7,6.1,4.7
	c3.9,0,8.5-1.7,13.3-4.9c2-1.4,5.2-4.1,6.7-5.4c0.3-0.2,0.5-0.4,0.6-0.6c1.2-1.1,2.9-2.6,4.5-4h0.1c-1.6,1.9-3.1,4.1-4.2,6
	c-1.2,2-2,4-2.2,5.6c-0.1,2,1.2,3.1,3.4,3.1h0.1c3.7,0,7.8-2.7,10.2-4.5c2.5-1.9,5.5-4.5,6.8-5.8c1.1-1,3-2.7,4.8-4.3l0.1,0.1
	c-3.4,4.3-6.4,8.7-6.5,11.5c-0.1,2,1.2,3.1,3.5,3.1c3.7,0,7.9-2.8,10.2-4.5c2.4-1.8,4.9-4,6.4-5.4c0.6-0.6,1.3-1.2,1.6-1.4l0.1,0.1
	c-2.3,2.7-3.3,4.8-3.4,7c-0.1,3,1.8,4.5,6,4.5c3.9,0,8.1-1.5,12.8-4.7c2-1.4,5.7-4.3,7.2-5.7c0.7-0.6,1.1-1.1,0.9-1.5
	c-0.2-0.2-0.6-0.1-1.2,0.5c-2.2,1.9-4.8,4-6.9,5.5c-5,3.4-8.9,4.2-10.3,4.2c-1.7,0-2.6-0.9-2.6-2.6c0-0.7,0.2-1.7,0.7-2.6
	c2.6-0.7,6.5-2,9.8-3.6c3.4-1.7,7-4,7.3-6.9c0.1-1.5-0.8-3.1-3.3-3.1H161c-3.1,0-6.5,1.5-9.8,3.2c-2.2,1.1-4.3,2.5-5.6,3.4
	c-1.7,1.2-2.7,2-4.2,3.4c-0.1,0.1-0.2,0.2-0.3,0.3c-1.1,1-2.4,2-3.9,3.2c-1.6,1.2-3.2,2.4-4.7,3.2c-1,0.6-2.7,1.2-3.5,0.7
	c-0.7-0.5-0.3-1.8,0.2-3.1c0.5-1,1.2-2.5,1.9-3.6c3.1-5,9.7-14.5,13.9-19.8c6.5-8.2,14-16.1,18.9-20.8c5.7-5.3,15.2-11.8,25.8-12
	c9.4-0.2,14.2,3.4,14.2,8.7c0,1.8-0.5,3.7-1.7,5.2c-0.6,0.7-1,0.9-0.9,1.1c0.1,0.2,0.7-0.1,1.4-0.8c1.2-1.4,2.6-3.6,2.6-6.6
	C205.3,5.6,199.1,0.9,191,1.1z M91.8,50.4c2.3-2.2,4-3.3,5-3.3c1,0,1.5,0.6,1.4,1.6c-0.1,1.6-1.8,4-4.7,5.9
	c-2.4,1.6-5.5,2.8-7.7,3.4C87.2,55.7,90,52.1,91.8,50.4z M154.1,50.4c2.3-2.2,4-3.3,5-3.3c1,0,1.5,0.6,1.4,1.6
	c-0.1,1.6-1.8,4-4.7,5.9c-2.4,1.6-5.5,2.8-7.7,3.4C149.4,55.7,152.3,52.1,154.1,50.4z"/>
</svg>
