<?xml version="1.0" encoding="utf-8"?>
<!-- Generator: Adobe Illustrator 19.0.0, SVG Export Plug-In . SVG Version: 6.00 Build 0)  -->
<svg version="1.1" id="Layer_1" xmlns="http://www.w3.org/2000/svg" xmlns:xlink="http://www.w3.org/1999/xlink" x="0px" y="0px"
	 viewBox="0 0 325 314.9" style="enable-background:new 0 0 325 314.9;" xml:space="preserve">
<style type="text/css">
	.st0{fill:#FFFFFF;}
</style>
<path class="st0" d="M4.6,157.2c0.1-2.7,0.3-5.3,0.4-8c1.2-19.6,6.5-38,15.7-55.4c15.7-29.4,38.7-51.4,68.2-66.7
	c18.8-9.7,38.7-16.3,59.6-19.7c17.1-2.8,34.3-3.8,51.6-2.8c43.4,2.5,82.2,17.3,116.5,44.1c0.4,0.3,0.8,0.7,1.3,1.1
	c-4.9,4.5-9.7,8.9-14.6,13.3c-2.9-2.2-5.6-4.4-8.5-6.5c-20.9-15.2-44-25.1-69.3-30.2c-15.1-3.1-30.3-4.1-45.7-3.5
	c-20.9,0.7-41.3,4.3-60.9,11.9c-17.1,6.7-32.9,15.5-46.9,27.4c-21.4,18.2-35.8,40.8-42.4,68.2c-2.9,12.3-3.9,24.7-2.9,37.3
	c3.4,40,22.4,71.1,54.6,94.3c19.3,13.9,41.1,22.6,64.4,27.3c16.6,3.4,33.4,4.3,50.3,3.3c39-2.3,73.8-15.5,104.2-40.1
	c2-1.6,3.9-3.3,5.9-5c5.2,4.4,10.4,8.8,15.8,13.4c-4.1,3.3-8,6.6-12.1,9.6c-23.7,17.5-49.8,29.7-78.6,36c-18.3,4-36.9,5.6-55.7,4.5
	c-19.5-1.1-38.6-4.1-57.2-9.9c-22-6.8-42.2-17.1-59.8-31.8c-25-20.9-42.5-46.8-50.2-78.8c-2.2-8.9-3.3-17.9-3.5-27.1
	c0-1-0.1-2-0.2-3C4.6,159.3,4.6,158.3,4.6,157.2z"/>
<path class="st0" d="M108.8,162.1c11,13.3,21.9,26.5,33,39.8c-2.6,0-5,0-7.3,0c-0.4,0-0.8-0.5-1.1-0.8
	c-10.2-12.4-20.5-24.9-30.7-37.4c-0.8-1-1.7-1.5-3-1.4c-3,0.1-6.1,0-9.2,0c0,13.2,0,26.3,0,39.5c-1.9,0-3.8,0-5.7,0
	c0-30.4,0-60.8,0-91.3c0.3,0,0.6-0.1,1-0.1c6.7,0,13.4-0.1,20,0c6.8,0.1,13.3,1.3,19.4,4.5c7.5,3.9,11.1,10.3,12,18.5
	c0.4,3.9,0.4,7.8-0.9,11.5c-2,5.4-5.5,9.7-10.5,12.6c-4.4,2.6-9.3,3.8-14.4,4.3C110.7,161.9,109.9,162,108.8,162.1z M90.6,156.5
	c5.9,0,11.7,0,17.5,0c2,0,4.1-0.2,6.1-0.5c4.1-0.6,7.9-2.2,11.1-4.9c5.8-4.9,7.4-11.2,6.1-18.5c-1.2-7.1-5.1-11.9-11.9-14.1
	c-3.1-1-6.4-1.8-9.7-2c-6.2-0.4-12.5-0.2-18.7-0.3c-0.2,0-0.4,0.1-0.6,0.1C90.6,129.7,90.6,143,90.6,156.5z"/>
<path class="st0" d="M311.2,201.9c-2,0-3.8,0.1-5.5,0c-0.4,0-0.9-0.6-1.1-1c-3.6-8.3-7.1-16.5-10.6-24.8c-0.4-1-0.9-1.3-2-1.3
	c-14.2,0-28.5,0-42.7,0c-1.2,0-1.6,0.4-2.1,1.4c-3.5,8.2-7.1,16.4-10.6,24.7c-0.3,0.8-0.7,1.2-1.7,1.1c-1.6-0.1-3.2,0-5,0
	c13.5-32.2,26.9-64.3,40.5-96.7C284.1,137.5,297.6,169.6,311.2,201.9z M270.5,117.9c-6.9,17.2-13.6,34.1-20.4,51
	c13.7,0,27.2,0,40.9,0C284.2,151.9,277.4,135.1,270.5,117.9z"/>
<path class="st0" d="M231.4,110.4c-13.5,32.7-26.8,65.3-40.4,98.2c-13.6-32.9-27-65.5-40.5-98.2c2,0,3.9,0,5.8,0
	c0.3,0,0.8,0.6,0.9,1c4.1,9.8,8.2,19.7,12.2,29.5c7.1,17,14.1,34.1,21.1,51.1c0.2,0.4,0.3,0.7,0.6,1.2c1.7-4.1,3.3-8,4.9-11.9
	c9.5-23.3,18.9-46.5,28.3-69.8c0.4-1,0.9-1.3,1.9-1.3C227.9,110.5,229.6,110.4,231.4,110.4z"/>
</svg>
