<?xml version="1.0" encoding="utf-8"?>
<!-- Generator: Adobe Illustrator 21.1.0, SVG Export Plug-In . SVG Version: 6.00 Build 0)  -->
<svg version="1.1" id="Layer_1" xmlns="http://www.w3.org/2000/svg" xmlns:xlink="http://www.w3.org/1999/xlink" x="0px" y="0px"
	 viewBox="0 0 317.2 307" style="enable-background:new 0 0 317.2 307;" xml:space="preserve">
<g>
	<path d="M129.5,197.5L97,157.9H85.9v39.6h-5.7V106h19.5c5.4,0,10.2,0.6,14.4,1.9c4.2,1.3,7.7,3,10.5,5.2c2.8,2.3,4.9,5.2,6.3,8.6
		c1.4,3.4,2,7.2,2,11.2c0.1,4.3-0.8,8-2.6,11.2c-1.9,3.1-4.1,5.8-6.8,7.9c-1.5,1.1-3.7,2.2-6.7,3.5c-3,1.2-7.1,2-12.5,2.4l33,39.8
		H129.5z M104.3,152.2c2.7,0,5.4-0.4,8.2-1.1c2.7-0.8,5.2-2,7.4-3.7c2.2-1.7,3.9-3.7,5.2-6.1c1.3-2.3,2-5.2,2.1-8.5
		c-0.1-3.4-0.6-6.4-1.6-8.9c-1-2.5-2.5-4.7-4.6-6.5c-2.2-1.8-5.1-3.2-8.5-4.2c-3.5-1-7.8-1.5-12.9-1.5H85.9v40.5H104.3z"/>
	<path d="M145.9,106h6.3l34.3,83.1l33.8-83.1h6.5l-40.3,98.2L145.9,106z"/>
	<path d="M300.4,197.5l-11.6-27.1h-45.6l-11.7,27.1h-6.1l40.5-96.6l40.6,96.6H300.4z M286.4,164.7l-20.5-51.2l-20.4,51.2H286.4z"/>
</g>
<path d="M301.5,243.2c-15.4,13.9-33.2,24.8-53.3,32.8c-20.1,8-41.6,12.2-64.5,12.6c-23.3,0.4-44.8-2.7-64.4-9.4
	c-19.6-6.7-36.6-16-51-27.9c-14.4-11.9-25.6-26-33.8-42.3c-8.1-16.3-12.4-33.7-12.7-52.2c-0.4-18.7,3.2-36.4,10.7-53.1
	c7.5-16.6,18.2-31.2,32.1-43.5c13.9-12.4,30.5-22.3,49.9-29.8c19.4-7.5,40.7-11.4,64-11.9c23.3-0.4,45.1,2.9,65.5,9.9
	c20.4,7.1,38.5,17.2,54.5,30.5l14.7-13.4c-17.9-14.5-38.2-25.9-61.1-34c-22.9-8.1-47.5-12-73.9-11.4c-26.4,0.5-50.6,4.9-72.6,13.3
	c-22,8.3-40.9,19.6-56.7,33.8C33.2,61.7,21,78.3,12.4,97.1C3.7,115.8-0.4,135.9,0,157.2c0.4,21,5.3,40.7,14.6,58.9
	c9.3,18.3,22.2,34.3,38.5,48.3c17.5,14.2,37.2,24.8,59.1,31.9c21.9,7,45.9,10.6,71.9,10.8c26.4-0.5,50.8-5.3,73.4-14.3
	c22.6-9,42.5-21.1,59.8-36.3L301.5,243.2z"/>
</svg>
