<?xml version="1.0" encoding="utf-8"?>
<!-- Generator: Adobe Illustrator 21.1.0, SVG Export Plug-In . SVG Version: 6.00 Build 0)  -->
<svg version="1.1" id="Layer_1" xmlns="http://www.w3.org/2000/svg" xmlns:xlink="http://www.w3.org/1999/xlink" x="0px" y="0px"
	 viewBox="0 0 358 226" style="enable-background:new 0 0 358 226;" xml:space="preserve">
<style type="text/css">
	.st0{fill:url(#SVGID_1_);}
	.st1{fill:#FFFFFF;}
</style>
<g>
	<radialGradient id="SVGID_1_" cx="227.2417" cy="111.3627" r="82.4918" gradientUnits="userSpaceOnUse">
		<stop  offset="0" style="stop-color:#E3CD00"/>
		<stop  offset="1" style="stop-color:#F39D00"/>
	</radialGradient>
	<path class="st0" d="M262,0c0,38.8,0,77.5,0,116.3c-0.5,0.3-1,0.6-1.5,0.9c-19.2-22-38.4-44-58.5-67.1c0,58.3,0,115.3,0,172.6
		c-3.5,0-6.4,0-9.5,0c0-65.1,0-130.2,0-195.2c0.4-0.3,0.9-0.6,1.3-0.9C213.2,49,232.6,71.3,253,94.8c0-32.4,0-63.6,0-94.8
		C256,0,259,0,262,0z"/>
	<path d="M304,226c-6.6-2.8-14-4.7-19.8-8.7c-17.6-12-24-33.8-16.7-53.9c7.3-20.3,25.7-31.9,48.5-30.4c19.9,1.3,36.7,16.2,41.2,36.8
		c0.2,0.8,0.6,1.5,0.9,2.3c0,5,0,10,0,15c-0.4,1.1-0.8,2.1-1.1,3.2c-4.1,15.9-13.8,26.9-29,33c-2.9,1.1-5.9,1.9-8.9,2.8
		C314,226,309,226,304,226z M311.1,217.2c21.2,0.1,37.6-16.2,37.8-37.5c0.2-21.2-16.7-38.4-37.8-38.3c-20.5,0.1-37.1,16.9-37.2,37.8
		C273.8,200.7,289.8,217.1,311.1,217.2z"/>
	<path d="M0,27c11.7,0.3,23.4-0.1,34.9,0.9c26.5,2.3,42.6,22.7,39.5,49.4c-2.4,20.9-13.9,34.7-32.2,37.4c-8.7,1.3-17.6,1.1-26.8,1.7
		c0-3.2,0-5.8,0-8.6c7.7-0.5,15.6-0.6,23.3-1.7c14.8-2.1,25-12.9,26.2-27.8c0.4-5.2,0.3-10.7-0.8-15.8c-3-13.9-11.9-22.7-25.9-25
		c-9.4-1.6-19.2-1.5-29.4-2.2c0,14.4,0,28,0,41.9C5.5,77.5,2.7,77.7,0,78C0,61,0,44,0,27z"/>
	<path class="st1" d="M319,226c3-0.9,6-1.7,8.9-2.8c15.2-6.1,24.9-17.1,29-33c0.3-1.1,0.7-2.1,1.1-3.2c0,13,0,26,0,39
		C345,226,332,226,319,226z"/>
	<path d="M82.6,72c0-26.7,20.2-47.2,46.4-47.1c26.7,0.1,46.9,20.2,46.9,46.6c0,26.2-20.4,46.6-46.5,46.6C103,118.1,82.6,98,82.6,72z
		 M91.8,71.6c0,21.5,16.1,37.7,37.5,37.6c21.1,0,37.5-16.5,37.5-37.9c0-21-16.7-37.8-37.6-37.9C108.3,33.5,91.8,50.4,91.8,71.6z"/>
	<path d="M159.2,223.1c-3.2,0-5.7,0-8.8,0c0-26.6,0-52.9,0-79.9c-6.8,0-13.1,0-19.6,0c0-3.1,0-5.7,0-8.6c16.1,0,31.8,0,47.9,0
		c0,2.7,0,5.3,0,8.3c-6.3,0-12.5,0-19.5,0C159.2,170,159.2,196.6,159.2,223.1z"/>
	<path d="M212.9,143.9c0-3.5,0-5.9,0-8.7c15.9,0,31.7,0,47.8,0c0,2.5,0,5,0,8.2c-6.1,0-12.3,0-19.1,0c0,27,0,53.3,0,80.1
		c-3.2,0-5.8,0-9,0c0-26.2,0-52.6,0-79.6C225.9,143.9,219.6,143.9,212.9,143.9z"/>
</g>
</svg>
