<?xml version="1.0" encoding="utf-8"?>
<!-- Generator: Adobe Illustrator 21.1.0, SVG Export Plug-In . SVG Version: 6.00 Build 0)  -->
<svg version="1.1" xmlns="http://www.w3.org/2000/svg" xmlns:xlink="http://www.w3.org/1999/xlink" x="0px" y="0px"
	 viewBox="0 0 421.9 68.8" style="enable-background:new 0 0 421.9 68.8;" xml:space="preserve">
<style type="text/css">
	.st0{display:none;}
	.st1{fill:#FFFFFF;}
	.st2{fill:#FCCB98;}
	.st3{fill:none;stroke:#000000;stroke-width:1.0048;stroke-linecap:round;}
	.st4{fill:#336698;}
	.st5{fill:none;stroke:#000000;stroke-width:1.0048;}
	.st6{fill:#FFCC33;}
	.st7{fill:#359846;}
	.st8{fill:#C93827;}
</style>
<g id="guides" class="st0">
</g>
<g id="border">
</g>
<g id="logo">
	<g>
		<g>
			<path d="M82.5,22.8l1.8-6.9h26.6l-2.6,6.9c-2.1-0.2-3.7-0.3-4.7-0.3h-3.7v30.1h-7.2c0.3-4.6,0.4-7.1,0.4-7.6V22.5h-4.6
				C86.4,22.5,84.4,22.6,82.5,22.8z"/>
			<path d="M111.9,52.6c0-0.5,0-1.3,0.1-2.4c0.1-1.1,0.1-1.9,0.1-2.4c0-18.8,0-29.5,0-31.9h6.9c0,0.5,0,1.3,0,2.4c0,1.1,0,1.9,0,2.4
				v8.6c1.9-0.9,3.6-1.4,5.2-1.4c2.8,0,5,0.9,6.6,2.7c1.7,1.8,2.5,4.1,2.5,6.9c0,1.5,0,3.8,0,6.9c0,3,0,5.3,0,6.8l0.2,1.5h-7.1
				c0.1-2.2,0.2-3.6,0.2-4.2v-9.8c0-3-1.3-4.5-3.9-4.5c-1.1,0-2.4,0.4-3.7,1.3c0,9.5,0,15.3,0,17.3H111.9z"/>
			<path d="M160.7,41.7h-18c0.8,3.5,2.7,5.2,5.7,5.2c2.3,0,4.8-1.3,7.3-3.8l4.7,4.2c-1.8,2.1-3.5,3.5-5.2,4.5
				c-1.9,1.1-4.2,1.6-6.7,1.6c-3.6,0-6.6-1.2-9-3.7c-2.5-2.5-3.7-5.5-3.7-9c0-3.7,1.2-6.8,3.7-9.4c2.5-2.6,5.5-3.8,9.1-3.8
				c2,0,3.9,0.5,5.8,1.5c1.9,1,3.4,2.3,4.3,4C160.1,34.9,160.7,37.9,160.7,41.7z M143.1,37.1h10.6c-1.3-2.3-3.1-3.5-5.3-3.5
				c-1.2,0-2.2,0.3-3.1,1C144.8,35,144.1,35.8,143.1,37.1z"/>
			<path d="M170.9,52.6c0.7-2.8,1.1-5.8,1.4-9.2c0.5-6.1,1.3-15.3,2.4-27.6h3.7l10.1,16.4l0.8,1.7c1.3-2.5,3-5.5,5.1-9.1
				c1.8-3,3.5-6,5.3-9h4c0.1,2,0.3,5,0.7,9.1l1.9,18.7c0.3,3.2,0.8,6.2,1.4,9h-7.4c-0.1-3.6-0.3-6.8-0.6-9.6
				c-0.2-2.1-0.5-4.2-0.7-6.3c-0.3-2.5-0.3-4.6-0.3-6.3c-0.2,0.6-0.6,1.3-1,2.3l-8.2,14c-1.7-2.8-3.4-5.6-5.2-8.4
				c-2.8-4.6-4.2-7.3-4.2-8c0,0.7,0,1.8-0.1,3.2l-1.2,13.1c-0.1,0.8-0.1,1.8-0.1,3c0.1,1.7,0.1,2.7,0.1,3H170.9z"/>
			<path d="M221.6,27.5c3.7,0,6.8,1.2,9.3,3.7c2.5,2.5,3.8,5.6,3.8,9.2c0,3.6-1.3,6.6-3.8,9.1c-2.5,2.5-5.6,3.8-9.1,3.8
				c-3.6,0-6.6-1.3-9.2-3.8c-2.5-2.5-3.8-5.6-3.8-9.2c0-3.4,1.3-6.5,3.8-9C215.2,28.8,218.2,27.5,221.6,27.5z M228.2,40.3
				c0-1.8-0.6-3.2-1.9-4.4c-1.2-1.2-2.8-1.8-4.5-1.8c-1.8,0-3.3,0.6-4.5,1.9c-1.2,1.2-1.8,2.8-1.8,4.6c0,1.8,0.6,3.3,1.9,4.5
				c1.3,1.2,2.8,1.8,4.5,1.8c1.8,0,3.3-0.6,4.5-1.9C227.6,43.7,228.2,42.1,228.2,40.3z"/>
			<path d="M234.7,34.3V28c0.7,0,1.6,0,2.6,0v-8.6h7c0,1.1-0.1,4-0.2,8.6c1.2,0.1,3,0.1,5.5,0v6.4c-1.2,0-3-0.1-5.5-0.1V43
				c0,2.4,0.6,3.6,1.7,3.6c0.7,0,1.6-0.1,2.6-0.4l1.8,5.2c-2.6,1.1-4.6,1.7-5.9,1.7c-4.5,0-6.7-3.1-6.7-9.2v-9.6H234.7z"/>
			<path d="M252.3,52.6c0.4-3.3,0.5-6.8,0.5-10.3v-18c0-2.8-0.1-5.6-0.2-8.4h7.1c-0.1,2.2-0.2,4.1-0.2,5.7v27.1c0,1.5,0,2.8,0,3.9
				H252.3z"/>
			<path d="M287.6,41.7h-18c0.8,3.5,2.7,5.2,5.7,5.2c2.3,0,4.8-1.3,7.3-3.8l4.7,4.2c-1.8,2.1-3.5,3.5-5.2,4.5
				c-1.9,1.1-4.2,1.6-6.7,1.6c-3.6,0-6.6-1.2-9-3.7c-2.5-2.5-3.7-5.5-3.7-9c0-3.7,1.2-6.8,3.7-9.4c2.5-2.6,5.5-3.8,9.1-3.8
				c2,0,3.9,0.5,5.8,1.5c1.9,1,3.4,2.3,4.3,4C287,34.9,287.6,37.9,287.6,41.7z M270,37.1h10.6c-1.3-2.3-3.1-3.5-5.3-3.5
				c-1.2,0-2.2,0.3-3.1,1C271.7,35,271,35.8,270,37.1z"/>
			<path d="M287.3,29.5l6.1-3c0.5,1,3,6.1,7.6,15.3l4.1-9.6c0.4-0.9,0.9-2.3,1.5-4.2h7.6c-2.3,5.2-5.7,13.1-10.3,23.6
				c-1.5,3.4-2.7,5.7-3.6,7c-1.8,2.4-4,3.6-6.5,3.6c-1.5,0-3.5-0.6-6.2-1.8l2.2-5.9c1.7,0.8,2.9,1.2,3.7,1.2c0.9,0,1.8-0.8,2.5-2.3
				c0.5-1.2,1-2.4,1.5-3.6L287.3,29.5z"/>
			<path d="M324.2,15.9h25.7l-2.6,6.8c-5.8-0.2-8.6-0.3-8.3-0.3H331v8.3l7.2,0.1h4.1l4.6-0.2l-2,6.5H331v9.7c0,0.7,0,1.7,0.1,3
				c0.1,1.3,0.1,2.2,0.1,2.8h-7c0-1.8,0-3.8,0-6.2V15.9z"/>
			<path d="M360.4,27.5c3.7,0,6.8,1.2,9.3,3.7c2.5,2.5,3.8,5.6,3.8,9.2c0,3.6-1.3,6.6-3.8,9.1c-2.5,2.5-5.6,3.8-9.1,3.8
				c-3.6,0-6.6-1.3-9.2-3.8c-2.5-2.5-3.8-5.6-3.8-9.2c0-3.4,1.3-6.5,3.8-9C354,28.8,356.9,27.5,360.4,27.5z M367,40.3
				c0-1.8-0.6-3.2-1.9-4.4c-1.2-1.2-2.8-1.8-4.5-1.8c-1.8,0-3.3,0.6-4.5,1.9c-1.2,1.2-1.8,2.8-1.8,4.6c0,1.8,0.6,3.3,1.9,4.5
				c1.3,1.2,2.8,1.8,4.5,1.8c1.8,0,3.3-0.6,4.5-1.9C366.4,43.7,367,42.1,367,40.3z"/>
			<path d="M388.3,27.5c3.7,0,6.8,1.2,9.3,3.7c2.5,2.5,3.8,5.6,3.8,9.2c0,3.6-1.3,6.6-3.8,9.1c-2.5,2.5-5.6,3.8-9.1,3.8
				c-3.6,0-6.6-1.3-9.2-3.8c-2.5-2.5-3.8-5.6-3.8-9.2c0-3.4,1.3-6.5,3.8-9C381.8,28.8,384.8,27.5,388.3,27.5z M394.9,40.3
				c0-1.8-0.6-3.2-1.9-4.4s-2.8-1.8-4.5-1.8c-1.8,0-3.3,0.6-4.5,1.9c-1.2,1.2-1.8,2.8-1.8,4.6c0,1.8,0.6,3.3,1.9,4.5
				c1.3,1.2,2.8,1.8,4.5,1.8c1.8,0,3.3-0.6,4.5-1.9C394.3,43.7,394.9,42.1,394.9,40.3z"/>
			<path d="M404.4,52.6c0.4-3.3,0.6-6.8,0.6-10.3v-18c0-2.8-0.1-5.6-0.2-8.4h7.2c-0.1,2.2-0.2,4.1-0.2,5.7v27.1c0,1.5,0,2.8,0,3.9
				H404.4z"/>
		</g>
		<g>
			<path d="M421.9,48.6c0,1.7-1.3,3-3,3c-1.7,0-3-1.3-3-3c0-1.7,1.3-3,3-3C420.6,45.6,421.9,46.9,421.9,48.6z M416.4,48.6
				c0,1.4,1.1,2.6,2.5,2.6c1.4,0,2.5-1.1,2.5-2.6c0-1.4-1.1-2.6-2.5-2.6C417.5,46,416.4,47.2,416.4,48.6z M418.3,50.3h-0.4v-3.4h1.3
				c0.8,0,1.1,0.3,1.1,1c0,0.6-0.4,0.9-0.9,1l1,1.5H420l-1-1.5h-0.7V50.3z M418.8,48.4c0.5,0,1,0,1-0.6c0-0.5-0.4-0.6-0.8-0.6h-0.8
				v1.2H418.8z"/>
		</g>
	</g>
	<g>
		<rect id="White_Frame_1_" class="st1" width="68.9" height="68.8"/>
		<g id="Legal_white">
			<path class="st1" d="M73.3,61.9c1.6,0,2.9,1.3,2.9,2.9c0,1.7-1.3,2.9-2.9,2.9c-1.6,0-2.9-1.3-2.9-2.9
				C70.4,63.2,71.7,61.9,73.3,61.9z M73.3,67.3c1.3,0,2.4-1.1,2.4-2.5c0-1.4-1-2.5-2.4-2.5c-1.4,0-2.4,1.1-2.4,2.5
				C70.9,66.3,71.9,67.3,73.3,67.3z M72.2,63.2h1.3c0.8,0,1.2,0.3,1.2,1c0,0.6-0.4,0.9-0.9,0.9l1,1.5h-0.6l-0.9-1.5h-0.6v1.5h-0.5
				V63.2z M72.7,64.7h0.6c0.5,0,0.9,0,0.9-0.6c0-0.5-0.4-0.5-0.7-0.5h-0.7V64.7z"/>
		</g>
		<g id="Jester_1_">
			<rect id="bkg" x="1.5" y="1.5" class="st1" width="66.1" height="66.1"/>
			<g id="Face_2_">
				<path class="st2" d="M51.6,31.5C51.4,31,40.3,17.9,40.3,17.9l-2.5-2.5l-3-13.9H1.5l0,66.1h39.6l1.2-0.7
					c6.9-4.8,3.4-13.1-0.5-15.1c-1-0.6-4.8,3-12.3-2.1c-5.5-3.8-4.2-11.3-4.2-11.3s5,8,14.7,6.3c1-5.1,0.8-4.3,2-9.4l0-0.5
					c5.6,0,7.1,0.1,8.3-0.1C51.8,34.6,52.4,33,51.6,31.5z"/>
				<path class="st3" d="M42.3,67c6.9-4.8,3.4-13.1-0.5-15.1c-1-0.6-4.8,3-12.3-2.1c-5.5-3.8-4.2-11.3-4.2-11.3s5,8,14.7,6.3
					c1-5.1,0.8-4.3,2-9.4l0-0.5"/>
				<path class="st3" d="M37.2,29.9c-3.9,0.5-2.4,5.1,0,4.9c1.9,0,3.5,0,4.8,0l0,0c5.6,0,7.1,0.1,8.3-0.1c1.4-0.1,2-1.7,1.3-3.2
					C51.4,31,40.3,17.8,40.3,17.8l-2.5-2.5"/>
				<ellipse class="st1" cx="22" cy="22.3" rx="7.3" ry="6.3"/>
				<circle class="st4" cx="19.9" cy="22.9" r="4.6"/>
				<ellipse class="st5" cx="22" cy="22.3" rx="7.3" ry="6.3"/>
				<path class="st3" d="M18.5,10.1c4.2-1.7,9.5-0.1,11.1,1.4"/>
			</g>
			<g id="Motley_2_">
				<g>
					<path class="st4" d="M60.6,20.2c-1.3-3.5-3.9-8-9-11.8c-3.6-2.7-8-4.8-13.1-6.2H61c1.1,2.7,1.7,5.6,1.7,8.4
						C62.7,15,61.4,18.4,60.6,20.2z"/>
					<g>
						<path d="M60.5,2.8c1,2.5,1.5,5.1,1.5,7.8c0,3.3-0.8,6-1.5,7.9c-1.5-3.3-4.1-7.2-8.6-10.7c-2.7-2-5.8-3.7-9.3-5H60.5 M61.4,1.5
							H31.9c8.8,1.3,14.9,4.1,19.3,7.4c5.6,4.3,8.1,9.3,9.2,13c0,0,3-4.6,2.9-11.3C63.4,7.8,62.9,4.8,61.4,1.5L61.4,1.5z"/>
					</g>
				</g>
				<g>
					<path class="st6" d="M2.2,66.9V49.6c2,0,9.3,0.4,16.7,3.5c8.4,3.6,14.8,8.2,19,13.8H2.2z"/>
					<g>
						<path d="M2.8,50.3c2.6,0.1,9.2,0.6,15.8,3.4c7.8,3.3,13.8,7.5,17.9,12.6H2.8V50.3 M1.9,48.9c-0.2,0-0.4,0-0.4,0v18.7h37.7
							c-3.3-4.7-9-10.4-20.1-15.1C11.2,49.1,3.6,48.9,1.9,48.9L1.9,48.9z"/>
					</g>
				</g>
				<g>
					<path class="st7" d="M5.2,31c-1.1-1.1-2.5-2.9-3-4.6V2.2h15.5C15,4.2,11.2,7.7,8.5,13C5.7,18.4,4.6,24.4,5.2,31z"/>
					<g>
						<path d="M15.8,2.8c-3.2,2.7-6,6.1-7.9,9.8c-2.5,5-3.7,10.5-3.5,16.4c-0.6-0.8-1.2-1.8-1.6-2.7V2.8H15.8 M19.9,1.5H1.5v25.1
							c1,3.1,4.5,6.3,4.5,6.3c-1.1-8,0.4-14.5,3-19.6C11.9,7.8,16.1,3.9,19.9,1.5L19.9,1.5z"/>
					</g>
				</g>
				<g>
					<path class="st8" d="M36,19.8c0.3-2.5,0.4-8-3.5-12.6c-1.8-2.2-4.3-3.9-7.3-5.1h19.8c0.4,4.5,0.1,7.4-1.2,10.3
						c-0.2,0.4-0.3,0.7-0.5,1.1C41.6,16.5,37.9,18.8,36,19.8z"/>
					<g>
						<path d="M44.3,2.8c0.3,4.1,0,6.8-1.2,9.4c-0.1,0.3-0.3,0.7-0.5,1c-1.3,2.4-3.9,4.3-5.9,5.4c0.1-2.9-0.3-7.7-3.8-11.8
							c-1.3-1.6-3-2.9-4.9-4H44.3 M45.5,1.5H20.6C26.2,2.7,29.7,5,32,7.7c4.1,4.9,3.7,11,3.1,13.3c0,0,6.4-2.8,8.7-7.1
							c0.2-0.4,0.4-0.7,0.5-1.1C45.7,9.6,46,6.4,45.5,1.5L45.5,1.5z"/>
					</g>
				</g>
				<g>
					<circle class="st6" cx="36.5" cy="23.8" r="4.7"/>
					<path d="M36.5,19.6c2.3,0,4.2,1.9,4.2,4.2c0,2.3-1.9,4.2-4.2,4.2c-2.3,0-4.2-1.9-4.2-4.2C32.3,21.5,34.2,19.6,36.5,19.6
						 M36.5,18.6c-2.9,0-5.2,2.3-5.2,5.2c0,2.9,2.3,5.2,5.2,5.2c2.9,0,5.2-2.3,5.2-5.2C41.7,20.9,39.3,18.6,36.5,18.6L36.5,18.6z"/>
				</g>
				<g>
					<circle class="st6" cx="60.6" cy="24.5" r="4.7"/>
					<path d="M60.6,20.3c2.3,0,4.2,1.9,4.2,4.2c0,2.3-1.9,4.2-4.2,4.2c-2.3,0-4.2-1.9-4.2-4.2C56.4,22.2,58.3,20.3,60.6,20.3
						 M60.6,19.3c-2.9,0-5.2,2.3-5.2,5.2c0,2.9,2.3,5.2,5.2,5.2c2.9,0,5.2-2.3,5.2-5.2C65.8,21.6,63.5,19.3,60.6,19.3L60.6,19.3z"/>
				</g>
				<g>
					<circle class="st6" cx="7.1" cy="36" r="4.7"/>
					<path d="M7.1,31.8c2.3,0,4.2,1.9,4.2,4.2c0,2.3-1.9,4.2-4.2,4.2c-2.3,0-4.2-1.9-4.2-4.2C2.9,33.7,4.8,31.8,7.1,31.8 M7.1,30.8
						c-2.9,0-5.2,2.3-5.2,5.2c0,2.9,2.3,5.2,5.2,5.2c2.9,0,5.2-2.3,5.2-5.2C12.3,33.1,10,30.8,7.1,30.8L7.1,30.8z"/>
				</g>
			</g>
			<g>
				<path d="M66.1,3v63.2H3V3H66.1 M67.6,1.5H1.5v66.1h66.1V1.5L67.6,1.5z"/>
			</g>
		</g>
	</g>
</g>
</svg>
