<?xml version="1.0" encoding="utf-8"?>
<!-- Generator: Adobe Illustrator 21.1.0, SVG Export Plug-In . SVG Version: 6.00 Build 0)  -->
<svg version="1.1" id="Layer_1" xmlns="http://www.w3.org/2000/svg" xmlns:xlink="http://www.w3.org/1999/xlink" x="0px" y="0px"
	 viewBox="0 0 557.5 149.1" style="enable-background:new 0 0 557.5 149.1;" xml:space="preserve">
<path d="M0,41.1C0.7,38,1.3,35,2.2,32C6.8,15,19.2,6.8,35.4,3.3c6.9-1.5,14.1-2.4,21.2-2.5c25.8-0.3,51.7-0.1,77.5-0.1
	c1,0,2,0.2,3.3,0.3c0,49.2,0,98.2,0,147.6c-13.3,0-26.5,0-40.3,0c0-14.3,0-28.7,0-43.7c-8.8,0-17.1-0.2-25.3,0.2
	c-1.2,0-2.7,2.1-3.5,3.6c-6.8,12.4-13.4,24.9-20.3,37.2c-0.7,1.3-2.5,2.9-3.8,2.9c-13.9,0.2-27.9,0.1-42.7,0.1
	c9.1-16.8,17.8-33,26.7-49.4c-1.5-0.8-2.7-1.5-4-2.1C11,91,3.5,80.2,1,65.8c-0.2-1.3-0.7-2.5-1-3.8C0,55.1,0,48.1,0,41.1z
	 M96.8,36.6c-13.4,0-26.3-0.5-39.2,0.2c-12.2,0.7-15.4,4.9-15.2,17.3c0,1.5,0.2,3,0.4,4.5c1,6.3,3.9,10.2,10.2,10.4
	c14.5,0.5,29.1,0.2,43.9,0.2C96.8,58.8,96.8,48,96.8,36.6z"/>
<path d="M304.9,60c0,12.8,0,24.8,0,37.4c-23.2,0-46.3,0-69.8,0c0,17.5,0,34.4,0,51.5c-14.1,0-27.7,0-41.5,0c0-49.3,0-98.4,0-147.8
	c37.2,0,74,0,111.3,0c0,12.4,0,24.6,0,37.3c-23.2,0-46.1,0-69.4,0c0,7.3,0,14.2,0,21.6C258.4,60,281.4,60,304.9,60z"/>
<path d="M312.2,38.6c0-13.1,0-25.2,0-37.6c37.1,0,74,0,111.3,0c0,49.3,0,98.4,0,147.7c-13.7,0-27.2,0-41.3,0c0-16.9,0-33.8,0-51.1
	c-23.4,0-46.4,0-69.8,0c0-12.6,0-24.8,0-37.4c23,0,45.9,0,69.2,0c0-7.2,0-14.1,0-21.6C358.7,38.6,335.6,38.6,312.2,38.6z"/>
<path d="M557.5,0.5c0,49.6,0,98.8,0,148.3c-13.8,0-27.4,0-41.6,0c0-35.3,0-70.7,0-106.6c-6.5,0-12.4,0-18.6,0c0-14.1,0-27.7,0-41.7
	C517.1,0.5,537,0.5,557.5,0.5z"/>
<path d="M489.6,42.2c-5.7,0-11,0-16.7,0c0,35.6,0,70.9,0,106.5c-14.2,0-27.9,0-42,0c-0.1-1.6-0.3-3.2-0.3-4.8c0-46,0-91.9-0.1-137.9
	c0-4.4,0.9-6.1,5.7-6c17.6,0.3,35.3,0.1,53.3,0.1C489.6,14.1,489.6,27.8,489.6,42.2z"/>
<path d="M145,1c13.9,0,27.4,0,41.4,0c0,49.2,0,98.2,0,147.7c-13.6,0-27.3,0-41.4,0C145,99.7,145,50.7,145,1z"/>
<path d="M479.5,60.3c10,0,19.6,0,29.4,0c0,12.3,0,24.3,0,36.5c-9.9,0-19.4,0-29.4,0C479.5,84.8,479.5,72.8,479.5,60.3z"/>
</svg>
