<?xml version="1.0" encoding="utf-8"?>
<!-- Generator: Adobe Illustrator 21.1.0, SVG Export Plug-In . SVG Version: 6.00 Build 0)  -->
<svg version="1.1" id="Layer_1" xmlns="http://www.w3.org/2000/svg" xmlns:xlink="http://www.w3.org/1999/xlink" x="0px" y="0px"
	 viewBox="0 0 354.7 157" style="enable-background:new 0 0 354.7 157;" xml:space="preserve">
<style type="text/css">
	.st0{fill:#373D61;}
	.st1{fill:#D63634;}
	.st2{fill:#FEFEFE;}
	.st3{fill:#D63634;stroke:#373D61;stroke-linecap:round;stroke-miterlimit:10;}
	.st4{fill:#D63634;stroke:#373D61;stroke-miterlimit:10;}
</style>
<g id="XMLID_1_">
	<g>
		<polygon class="st0" points="169.8,17.3 207.3,60.6 177.9,60.7 154.4,33 32,157 0.2,157 139.6,15.9 154.7,0.5 155,0.3 155.1,0.2 
			155.7,1 		"/>
	</g>
</g>
<g id="XMLID_3_">
	<g>
		<polygon class="st1" points="177.9,86.1 177.9,106 153.4,80 77.2,157 57.3,157 154.5,59.2 		"/>
	</g>
</g>
<g id="XMLID_2_">
	<g>
		<polygon class="st0" points="177.9,121.7 177.9,132.7 154.2,109.8 107.2,157 96.2,157 148.5,104.1 154.2,98.4 159.9,104.1 		"/>
	</g>
</g>
<polygon class="st2" points="154.5,59.2 177.9,86.1 177.9,60.7 154.3,32.9 32,157 57.3,157 "/>
<g>
	<path class="st3" d="M241.6,124.6c1.7,0.4,3,1.1,3.9,2c0.5,0.5,0.9,1.1,1.2,1.9c0.3,0.8,0.5,1.7,0.5,2.5c0,2.5-1,4.5-2.9,6
		c-1.9,1.5-4.4,2.3-7.5,2.3c-3.1,0-5.7-0.8-7.8-2.5c-1.5-1.2-2.3-2.4-2.3-3.5c0-0.5,0.2-0.9,0.5-1.2c0.3-0.3,0.7-0.5,1.2-0.5
		c0.6,0,1.2,0.4,1.7,1.3c0.5,0.9,0.9,1.5,1.2,1.8c0.3,0.4,0.7,0.7,1.2,1c1.1,0.7,2.4,1.1,3.9,1.1c1.7,0,3.1-0.4,4.2-1.3
		c1.1-0.8,1.6-1.9,1.6-3.3c0-1.8-1.3-2.9-3.8-3.4l-3.8-0.8c-2.2-0.5-3.9-1.4-5.1-2.5c-1.2-1.2-1.8-2.7-1.8-4.4c0-2.2,0.9-4,2.7-5.4
		c1.8-1.4,4.1-2.1,6.9-2.1c1.2,0,2.4,0.1,3.6,0.4c1.2,0.3,2.3,0.7,3.2,1.1c0.5,0.3,0.8,0.6,0.9,1c0.3,0.8,0.4,1.6,0.4,2.5
		c0,1.1-0.4,1.6-1.3,1.6c-0.4,0-0.7-0.2-1-0.7l-0.8-1.3c-0.2-0.3-0.5-0.6-1-1s-1-0.7-1.4-0.9c-0.8-0.4-1.6-0.6-2.7-0.6
		c-1.4,0-2.5,0.3-3.3,1c-0.8,0.7-1.3,1.6-1.3,2.7c0,0.9,0.3,1.6,0.9,2.3c0.4,0.4,0.7,0.7,1.1,0.9c0.4,0.2,1,0.4,1.9,0.6L241.6,124.6
		z"/>
	<path class="st3" d="M271.5,114.1c0.8,0,1.2,0.3,1.2,1c0,0.5-0.3,0.8-0.9,1c-0.4,0.1-0.7,0.3-0.8,0.6c-0.1,0.2-0.2,0.7-0.2,1.3v0.6
		c0.1,1.4,0.2,3,0.3,4.8c0.1,1.8,0.1,3.4,0.1,4.9v2.2c0,1-0.1,2-0.4,2.8s-0.7,1.6-1.2,2.4c-1.8,2.5-4.6,3.8-8.6,3.8
		c-3.1,0-5.6-0.6-7.5-1.9c-1.3-0.9-2.2-2.1-2.7-3.4s-0.8-3.2-0.8-5.5c0-1.3,0-2.9,0.1-4.7s0.2-3.6,0.4-5.4v-0.5c0-0.6-0.1-1-0.2-1.2
		c-0.1-0.2-0.5-0.4-1-0.6c-0.5-0.2-0.8-0.5-0.8-1c0-0.6,0.4-1,1.2-1h6.5c0.8,0,1.2,0.3,1.2,1c0,0.5-0.3,0.8-0.8,1
		c-0.5,0.2-0.9,0.4-1,0.7c-0.1,0.3-0.2,0.8-0.2,1.7l-0.3,4.3l-0.2,3.9v2.5c0,1.9,0.2,3.4,0.7,4.4c0.5,1,1.2,1.8,2.3,2.5
		c1.1,0.6,2.3,0.9,3.7,0.9c1.8,0,3.3-0.5,4.6-1.6c0.9-0.8,1.5-1.8,1.9-3c0.2-0.6,0.3-1.1,0.3-1.6c0-0.5,0.1-1.3,0.1-2.4v-1.8
		c0-0.9,0-1.6,0-2.1s-0.1-1.1-0.1-1.6l-0.3-4.2c0-0.9-0.1-1.5-0.2-1.8c-0.1-0.3-0.5-0.5-1.1-0.7s-0.9-0.5-0.9-1c0-0.6,0.4-1,1.2-1
		H271.5z"/>
	<path class="st3" d="M280.7,129.6v5.5c0,0.5,0.1,1,0.2,1.2c0.2,0.3,0.5,0.5,0.9,0.6c0.6,0.2,0.9,0.5,0.9,1c0,0.6-0.4,1-1.2,1h-6.6
		c-0.8,0-1.2-0.3-1.2-1c0-0.5,0.3-0.8,0.9-1c0.4-0.2,0.7-0.4,0.9-0.6c0.2-0.3,0.2-0.7,0.2-1.2v-17.1c0-0.6-0.1-1-0.2-1.2
		c-0.1-0.3-0.4-0.4-0.9-0.6c-0.6-0.2-0.9-0.5-0.9-1c0-0.6,0.4-1,1.2-1h11.5c2.4,0,4.4,0.6,5.9,1.8c1.5,1.2,2.2,2.8,2.2,4.8
		c0,2.5-1.1,4.4-3.3,6c-0.9,0.6-1.8,1.2-2.9,1.6c-1.1,0.4-2.2,0.8-3.3,1S282.6,129.6,280.7,129.6z M280.7,118.3v8.8
		c2.6,0,4.7-0.6,6.3-1.8c1.6-1.2,2.4-2.7,2.4-4.5c0-0.9-0.2-1.7-0.7-2.5c-0.5-0.8-1.1-1.3-2-1.6c-0.8-0.3-2-0.5-3.5-0.5
		c-0.5,0-1,0-1.3,0.1c-0.3,0-0.6,0.2-0.8,0.4c-0.2,0.2-0.3,0.4-0.3,0.6C280.7,117.6,280.7,117.9,280.7,118.3z"/>
	<path class="st3" d="M301.7,129.6v5.5c0,0.5,0.1,1,0.2,1.2c0.2,0.3,0.5,0.5,0.9,0.6c0.6,0.2,0.9,0.5,0.9,1c0,0.6-0.4,1-1.2,1h-6.6
		c-0.8,0-1.2-0.3-1.2-1c0-0.5,0.3-0.8,0.9-1c0.4-0.2,0.7-0.4,0.9-0.6c0.2-0.3,0.2-0.7,0.2-1.2v-17.1c0-0.6-0.1-1-0.2-1.2
		c-0.1-0.3-0.4-0.4-0.9-0.6c-0.6-0.2-0.9-0.5-0.9-1c0-0.6,0.4-1,1.2-1h11.5c2.4,0,4.4,0.6,5.9,1.8c1.5,1.2,2.2,2.8,2.2,4.8
		c0,2.5-1.1,4.4-3.3,6c-0.9,0.6-1.8,1.2-2.9,1.6c-1.1,0.4-2.2,0.8-3.3,1S303.5,129.6,301.7,129.6z M301.7,118.3v8.8
		c2.6,0,4.7-0.6,6.3-1.8c1.6-1.2,2.4-2.7,2.4-4.5c0-0.9-0.2-1.7-0.7-2.5c-0.5-0.8-1.1-1.3-2-1.6c-0.8-0.3-2-0.5-3.5-0.5
		c-0.5,0-1,0-1.3,0.1c-0.3,0-0.6,0.2-0.8,0.4c-0.2,0.2-0.3,0.4-0.3,0.6C301.7,117.6,301.7,117.9,301.7,118.3z"/>
	<path class="st3" d="M322.9,133v1.8c0,0.7,0.2,1.2,0.6,1.4c0.4,0.2,1.4,0.3,2.9,0.3c1.6,0,2.8-0.2,3.8-0.5c1-0.3,2-1,3.1-1.9
		c0.4-0.4,0.8-0.6,1.1-0.6c0.7,0,1,0.4,1,1.1c0,0.3-0.2,1.3-0.6,2.9c-0.2,0.5-0.4,0.8-0.7,1s-0.8,0.3-1.5,0.3h-15.8
		c-0.8,0-1.2-0.3-1.2-1c0-0.5,0.3-0.8,0.9-1c0.4-0.2,0.7-0.4,0.9-0.6c0.1-0.3,0.2-0.7,0.2-1.2v-17.2c0-0.5-0.1-1-0.2-1.2
		c-0.1-0.3-0.4-0.4-0.9-0.6c-0.6-0.2-0.9-0.5-0.9-1c0-0.6,0.4-1,1.2-1h6.7c0.8,0,1.2,0.3,1.2,1c0,0.5-0.3,0.8-0.9,1
		c-0.5,0.1-0.8,0.3-0.9,0.6c-0.2,0.3-0.2,0.7-0.2,1.2L322.9,133z"/>
	<path class="st3" d="M338.2,128.8c-1.8-2.3-3.1-4.1-3.9-5.2c-0.8-1.1-1.5-2.2-2-3.2l-1.4-2.6c-0.5-0.9-1-1.5-1.5-1.7l-0.3-0.1
		c-0.4-0.2-0.6-0.5-0.6-0.9c0-0.3,0.1-0.5,0.3-0.7c0.2-0.2,0.5-0.3,0.8-0.3h7.2c0.8,0,1.2,0.3,1.2,1c0,0.5-0.3,0.8-0.9,1
		c-0.5,0.2-0.8,0.5-0.8,0.9c0,0.5,0.4,1.4,1.2,2.7l1.8,3.2l2.5,3.6l2.5-3.5l2.1-3.5c0.4-0.7,0.7-1.2,0.9-1.5
		c0.2-0.4,0.2-0.6,0.2-0.9c0-0.5-0.3-0.9-0.9-1.1c-0.6-0.2-0.9-0.5-0.9-1c0-0.3,0.1-0.5,0.3-0.7c0.2-0.2,0.5-0.3,0.9-0.3h4.7
		c0.8,0,1.2,0.3,1.2,1c0,0.5-0.2,0.8-0.6,0.9l-0.3,0.1c-0.2,0-0.4,0.2-0.6,0.3c-0.1,0.1-0.2,0.1-0.3,0.2s-0.2,0.3-0.3,0.5l-1.9,3.5
		c-0.5,0.9-1,1.8-1.8,2.9c-0.6,0.9-1.9,2.7-3.8,5.3v6.2c0,0.6,0.1,1,0.2,1.3s0.4,0.4,0.9,0.6c0.6,0.2,0.9,0.5,0.9,1
		c0,0.3-0.1,0.5-0.3,0.7s-0.5,0.3-0.9,0.3h-6.7c-0.8,0-1.2-0.3-1.2-1c0-0.5,0.3-0.8,0.9-1c0.4-0.2,0.7-0.4,0.9-0.6s0.2-0.6,0.2-1.2
		V128.8z"/>
</g>
<g>
	<path class="st3" d="M203.2,77.1l0.7,1c0.8,1.1,1.4,2.1,1.8,2.8c0.4,0.8,0.9,1.8,1.5,3c0.6,1.2,0.9,2,1,2.2
		c0.3,0.6,0.7,0.9,1.1,1.1l0.3,0.1c0.5,0.2,0.7,0.5,0.7,1c0,0.6-0.4,1-1.1,1H202c-0.8,0-1.2-0.3-1.2-1c0-0.5,0.3-0.8,0.9-1
		c0.6-0.2,1-0.5,1-1c0-0.5-0.3-1.3-0.9-2.4l-1.7-3.1c-0.2-0.5-0.5-0.9-0.7-1.3c-0.3-0.4-0.5-0.8-0.7-1.1l-1.1,0.2L194,79v6.4
		c0,0.5,0.1,1,0.2,1.2c0.2,0.3,0.5,0.5,0.9,0.6c0.6,0.2,0.9,0.5,0.9,1c0,0.6-0.4,1-1.2,1h-6.6c-0.8,0-1.2-0.3-1.2-1
		c0-0.5,0.3-0.8,0.9-1c0.4-0.2,0.7-0.4,0.9-0.6c0.2-0.3,0.2-0.7,0.2-1.2V68.2c0-0.6-0.1-1-0.2-1.2c-0.1-0.3-0.4-0.4-0.9-0.6
		c-0.6-0.2-0.9-0.5-0.9-1c0-0.6,0.4-1,1.2-1h12c2.4,0,4.3,0.6,5.8,1.7c1.5,1.1,2.2,2.7,2.2,4.6C208.3,73.5,206.6,75.6,203.2,77.1z
		 M194,76.5c2.7,0,4.9-0.5,6.5-1.5s2.5-2.3,2.5-4c0-1.3-0.5-2.4-1.5-3.2c-1-0.8-2.2-1.3-3.7-1.3h-0.3c-0.6,0-1.1,0-1.6,0.1
		s-0.8,0.2-1.1,0.3c-0.6,0.3-0.9,0.9-0.9,1.9V76.5z"/>
</g>
<g>
	<path class="st3" d="M202.8,139.2c1.7,0.4,3,1.1,3.9,2c0.5,0.5,0.9,1.1,1.2,1.9c0.3,0.8,0.5,1.7,0.5,2.5c0,2.5-1,4.5-2.9,6
		c-1.9,1.5-4.4,2.3-7.5,2.3c-3.1,0-5.7-0.8-7.8-2.5c-1.5-1.2-2.3-2.4-2.3-3.5c0-0.5,0.2-0.9,0.5-1.2c0.3-0.3,0.7-0.5,1.2-0.5
		c0.6,0,1.2,0.4,1.7,1.3c0.5,0.9,0.9,1.5,1.2,1.8c0.3,0.4,0.7,0.7,1.2,1c1.1,0.7,2.4,1.1,3.9,1.1c1.7,0,3.1-0.4,4.2-1.3
		c1.1-0.8,1.6-1.9,1.6-3.3c0-1.8-1.3-2.9-3.8-3.4l-3.8-0.8c-2.2-0.5-3.9-1.4-5.1-2.5c-1.2-1.2-1.8-2.7-1.8-4.4c0-2.2,0.9-4,2.7-5.4
		c1.8-1.4,4.1-2.1,6.9-2.1c1.2,0,2.4,0.1,3.6,0.4c1.2,0.3,2.3,0.7,3.2,1.1c0.5,0.3,0.8,0.6,0.9,1c0.3,0.8,0.4,1.6,0.4,2.5
		c0,1.1-0.4,1.6-1.3,1.6c-0.4,0-0.7-0.2-1-0.7l-0.8-1.3c-0.2-0.3-0.5-0.6-1-1s-1-0.7-1.4-0.9c-0.8-0.4-1.6-0.6-2.7-0.6
		c-1.4,0-2.5,0.3-3.3,1c-0.8,0.7-1.3,1.6-1.3,2.7c0,0.9,0.3,1.6,0.9,2.3c0.4,0.4,0.7,0.7,1.1,0.9c0.4,0.2,1,0.4,1.9,0.6L202.8,139.2
		z"/>
</g>
<path class="st4" d="M211,109.3c1.6,3.8,0.7,6.2-3,8c-4.2,2.1-8.6,2.3-13,1c-4.6-1.3-7.3-4.5-7.4-8.3c-0.1-3.7,2-6,6.9-7.7
	c0.9-5,5.2-7.3,9.9-5.2c1.1,0.5,2.2,1.9,2.5,3c0.2,0.7-1.1,2.5-1.8,2.6c-1.2,0.2-2.5-0.7-3.7-1.1c-0.2-0.1-0.3-0.3-1-0.2
	c0.6,1,1.1,2,2.1,3.5c-1.2,0.2-2.3,0.4-3.4,0.6c-0.7,0.1-1.7,0.1-2,0.5c-1.4,2.3-0.9,4.6,0.4,6.8c1.2,2,3,2.8,5.3,2.4
	c0.8-0.1,1.7-0.6,2.2-1.2c0.4-0.5,0.4-1.6,0.2-2.2c-0.2-0.4-1.2-0.7-1.8-0.7c-0.7,0-1.3,0.3-2.1,0.5c-0.9-2.1,0.2-3.2,1.7-4
	c2.1-1,4.3-1.8,6.4-2.7c0.7-0.3,1.6-0.5,2.1-1c0.6-0.7,1-1.7,1.4-2.5c-0.8-0.2-1.6-0.3-2.4-0.5c-0.2-0.1-0.4-0.1-0.7-0.2
	c0.4-2.3,1.7-3.3,4.1-3.2c2.3,0,4.1,1.6,4.3,3.7c0.3,2.8-1.2,4.7-3.4,6.1C213.6,108.1,212.3,108.7,211,109.3z"/>
</svg>
