<?xml version="1.0" encoding="utf-8"?>
<!-- Generator: Adobe Illustrator 21.1.0, SVG Export Plug-In . SVG Version: 6.00 Build 0)  -->
<svg version="1.1" id="Layer_1" xmlns="http://www.w3.org/2000/svg" xmlns:xlink="http://www.w3.org/1999/xlink" x="0px" y="0px"
	 viewBox="0 0 334.4 135.8" style="enable-background:new 0 0 334.4 135.8;" xml:space="preserve">
<style type="text/css">
	.st0{fill:none;stroke:#000000;stroke-width:0.3;}
	.st1{fill:#EC8523;}
	.st2{fill:none;stroke:#EC8523;stroke-width:5;stroke-linejoin:round;stroke-miterlimit:10;}
	.st3{fill:#EC8523;stroke:#EC8523;stroke-width:5;stroke-miterlimit:10;}
</style>
<path class="st0" d="M38.1,130.1"/>
<path class="st1" d="M28.9,17.7"/>
<path class="st1" d="M28.9,22.3"/>
<polyline class="st1" points="28.9,61 28.9,111.2 57.1,111.2 57.1,77.5 83.8,77.5 83.8,57.1 57.1,57.1 33,56.6 "/>
<polyline class="st1" points="42.3,17.7 120.7,17.7 123.6,20.3 125.8,22.5 125.9,35.1 121.4,39.5 57.1,39.4 "/>
<polygon class="st1" points="97.7,61 125.8,61 125.8,95.3 125.8,114.7 97.7,114.7 "/>
<path class="st1" d="M125.9,119.1c0,0,29.6,0.4,45,0.4c8.8,0,15.9-0.4,21.6-3.2c5.8-2.8,10.3-7,13.5-12.4c3.2-5.5,4.8-11.5,4.8-17.9
	c0-5.5,0.2-7.6-2.2-12c-2.4-4.5-7.8-9-13.1-12.1c-5.3-3-14.3-5.6-26.6-8.5c-5-1.1-7.1-1.2-8.4-2.5c-1.4-1.3-2.5-2.9-2.5-4.5
	c0-2.2-0.2-4.2,1.5-5.8c1.7-1.5,4.9-1.4,8.1-1.4l75-0.4V17h-72.8c-9.5,0-16.3,0.2-21.7,2.9c-5.4,2.6-9.5,6.3-12.2,10.9
	c-2.7,4.6-4.1,9.5-4.1,14.7c0,7.9,2.6,14.4,7.9,19.5c5.2,5.1,14,9.2,26.3,12.3c7.5,1.8,12.3,3.8,14.4,5.9c2.1,2.1,3.1,4.4,3.1,7
	c0,2.8-1.1,5.2-3.2,7.3c-2.2,2.1-5.3,3.1-9.3,3.1c-5.4,0-8.3,0.2-13.4,0c-4-0.1-14.2-0.4-27.6-0.4"/>
<polyline class="st1" points="223.6,53.2 247.2,53.2 277.9,53.2 278.3,21.8 282.6,17 301.7,17.4 306.1,21.8 306.1,114.5 282.2,119 
	277.9,114.3 277.9,78 247.2,78 247.4,114.5 243,119 223.6,119 219.2,114.5 219.3,57.6 "/>
<polyline class="st1" points="222.9,33.9 217.9,33.9 217.9,18.2 222.9,18.2 "/>
<circle class="st1" cx="33.3" cy="111.2" r="4.4"/>
<circle class="st1" cx="52.6" cy="111.2" r="4.4"/>
<rect x="33.3" y="104.8" class="st1" width="19.3" height="10.9"/>
<g>
	<circle class="st1" cx="102.1" cy="114.7" r="4.4"/>
	<rect x="102.1" y="108.2" class="st1" width="23.8" height="10.9"/>
</g>
<g>
	<circle class="st1" cx="301.6" cy="114.5" r="4.4"/>
	<rect x="282.1" y="108.1" class="st1" width="19.5" height="10.9"/>
</g>
<g>
	<ellipse class="st1" cx="222.9" cy="114.5" rx="3.7" ry="4.4"/>
	<rect x="222.9" y="108.1" class="st1" width="20.1" height="10.9"/>
</g>
<ellipse class="st1" cx="301.7" cy="21.8" rx="4.4" ry="4.4"/>
<ellipse class="st1" cx="282.6" cy="21.4" rx="4.4" ry="4.4"/>
<ellipse class="st1" cx="223.6" cy="57.6" rx="4.4" ry="4.4"/>
<ellipse class="st1" cx="243" cy="114.5" rx="4.4" ry="4.4"/>
<ellipse class="st1" cx="282.2" cy="114.5" rx="4.4" ry="4.4"/>
<ellipse class="st1" cx="243" cy="114.5" rx="4.4" ry="4.4"/>
<rect x="288.4" y="17.4" class="st1" width="13.2" height="10.9"/>
<ellipse class="st1" cx="242.7" cy="21.4" rx="4.4" ry="4.4"/>
<ellipse class="st1" cx="242.7" cy="34.2" rx="4.4" ry="4.4"/>
<rect x="219.2" y="17.4" class="st1" width="23.5" height="10.9"/>
<circle class="st1" cx="33.3" cy="22.1" r="4.4"/>
<circle class="st1" cx="33.3" cy="35.1" r="4.4"/>
<circle class="st1" cx="33.3" cy="61" r="4.4"/>
<rect x="28.9" y="22.1" class="st1" width="8.8" height="12.9"/>
<rect x="33.3" y="17.7" class="st1" width="23.8" height="10.9"/>
<circle class="st1" cx="121.4" cy="22.1" r="4.4"/>
<circle class="st1" cx="121.4" cy="35.1" r="4.4"/>
<circle class="st1" cx="102.1" cy="61" r="4.4"/>
<circle class="st1" cx="121.4" cy="61" r="4.4"/>
<rect x="97.7" y="17.7" class="st1" width="23.8" height="10.9"/>
<rect x="121.6" y="95.6" class="st1" width="9.1" height="9.4"/>
<circle class="st1" cx="130.3" cy="95.8" r="4.4"/>
<rect x="273.5" y="48.7" class="st1" width="9.4" height="9.1"/>
<circle class="st1" cx="273.5" cy="48.7" r="4.4"/>
<circle class="st1" cx="251.6" cy="48.7" r="4.4"/>
<rect x="102.1" y="56.6" class="st1" width="19.3" height="4.9"/>
<circle class="st1" cx="83.8" cy="61.5" r="4.4"/>
<circle class="st1" cx="83.8" cy="73.1" r="4.4"/>
<polygon class="st1" points="83.3,73.8 83.3,63.6 88.2,61.8 88.2,73.8 "/>
<path class="st1" d="M247.2,82.8c0,0,0.4-4.8,4.7-4.8v-2.4h-8.5v7.6L247.2,82.8z"/>
<path class="st1" d="M278,82.8c0,0-0.4-4.8-4.7-4.8v-2.4h8.5v7.6L278,82.8z"/>
<path class="st1" d="M57.1,82.2c0,0,0.4-4.8,4.7-4.8V75h-8.5v7.6L57.1,82.2z"/>
<polyline class="st1" points="131.9,102.2 121.7,102.3 125.9,119.1 "/>
<rect x="33.3" y="17.7" class="st1" width="23.8" height="21.8"/>
<rect x="237.4" y="21.4" class="st1" width="9.7" height="13.3"/>
<path class="st1" d="M15.7,67.8"/>
<polyline class="st2" points="323.7,78 323.7,133.3 11.7,133.3 11.7,95.8 "/>
<polygon class="st3" points="11.7,113.2 3.7,113.2 11.7,92.8 "/>
<polyline class="st2" points="10.7,56.6 10.7,2.5 322.6,2.5 322.6,40 "/>
<polygon class="st3" points="322.6,20.6 330.7,20.6 322.6,41 "/>
<circle class="st2" cx="10.5" cy="64.4" r="5.8"/>
<circle class="st2" cx="323.7" cy="72.2" r="5.8"/>
</svg>
