<?xml version="1.0" encoding="utf-8"?>
<!-- Generator: Adobe Illustrator 21.1.0, SVG Export Plug-In . SVG Version: 6.00 Build 0)  -->
<svg version="1.1" id="Layer_5" xmlns="http://www.w3.org/2000/svg" xmlns:xlink="http://www.w3.org/1999/xlink" x="0px" y="0px"
	 viewBox="0 0 170.2 37.7" style="enable-background:new 0 0 170.2 37.7;" xml:space="preserve">
<style type="text/css">
	.st0{fill:#9561A8;}
	.st1{fill:#54B948;}
	.st2{fill:none;stroke:#000000;stroke-width:0.9778;}
	.st3{fill:none;stroke:#000000;stroke-width:0.5704;stroke-linecap:round;}
	.st4{fill:none;stroke:#000000;stroke-width:0.9778;stroke-linecap:square;stroke-linejoin:bevel;}
	.st5{stroke:#000000;stroke-width:0.5704;}
	.st6{fill:none;stroke:#000000;stroke-width:0.4889;}
	.st7{fill:none;stroke:#000000;stroke-width:0.4889;stroke-linecap:round;}
	.st8{stroke:#000000;stroke-width:0.4889;stroke-linecap:round;}
	.st9{fill:#EB2D2E;}
	.st10{fill:#006C67;}
</style>
<g>
	<polygon class="st0" points="78.1,9 77.1,9.3 75,10.4 73.2,11.1 71.5,11.2 71,11.8 70.7,14.1 70.5,15.7 70.4,17.1 70.5,18.5 
		70.2,20.6 70.2,22.1 69,23.6 68.9,25.3 68.9,27.6 69.4,29.5 71.1,30.1 73,29.3 74.6,28.9 77.3,27.3 77.8,26.1 81.2,25.3 82.6,22.7 
		84.8,21.2 85.5,19.9 86.1,18.2 87.6,16.9 88.2,14.8 87.9,12.7 86.2,10.9 	"/>
	<polygon class="st1" points="79.3,4.5 83.1,1.2 86.1,0.3 87.7,1.1 89.4,3.1 90,4.4 91.2,5.8 93.5,8.8 92.1,10.2 90.2,11.5 
		89.7,12.9 87.7,11.9 87.4,12.7 85.4,11.9 84.2,12.9 83.2,12.9 82.2,11.9 80.9,11.7 79.5,11.9 78.8,11.4 78.7,8.8 78.3,6.4 
		78.8,4.6 	"/>
	<polygon class="st1" points="76.5,6.1 73.3,6.1 70.9,6.8 71.7,7.7 71.9,8.7 70.4,9.6 70.2,10.4 71.1,10.9 71,11.3 72.4,11.6 
		74.1,11.5 75.6,10.4 76.9,9.3 78.3,9.1 78.1,6.9 77.7,5.8 	"/>
	<path class="st2" d="M77.4,6.2c-3.3-0.2-6.7,0.7-6.6,1c0,0.1,1.5,1.2,1.5,1.4c-0.1,0.2-1.6,0.9-2,1.6c-0.4,0.7,1,1,1,1
		s-1.6,2.2-0.5,3.3c0.6,0.6-1.2,1.8-0.2,3.7c0.5,1.3-1.3,2.2-0.2,3.9c-3.6,2.8-0.6,4.5-1.1,4.9c-0.5,0.4-0.8,1.8,0.2,2.7
		c0.9,0.9,3,0.6,3.9-0.9c1.9,0.6,4.2-0.8,4.4-2.7c1.6,0.4,5-0.2,4.7-3.8c3.2,0,2.9-1.8,3.4-4c0.5-0.1,3.9-1.9,1.8-5.8
		c0,0,0-0.5,0.5-0.1c0.3,0.3,3.3,1.4,2-1.3c0.6,0,3.4-0.6,3.4-2.2c-0.2-0.6-0.9-2.2-2.3-2.9c0.5-1.5-0.4-1.1-1.1-1.5c0,0,0,0,0-1
		c-0.1-0.2-1.7-0.9-2.5-1.4c0,0,0.9-0.2,0.6-0.9c-0.6-1.1-4.7-1.4-8.1,2.4c0,0-1.1-0.1-1.4-2.4c-0.4-0.5-0.7,0.1-0.4,1.6
		c0.2,1.4-0.2,1.9-0.3,2.5C77.8,5.9,77.4,6.2,77.4,6.2z"/>
	<path class="st3" d="M90.9,6.1c0,0-2,1.2-2.1,2.3"/>
	<path class="st3" d="M90.2,4.7c0,0-3.1,1.1-4.4,2.7c0,0,1,3.3,2.2,4.7"/>
	<path class="st3" d="M89.6,3.8c0,0-4.8,0.4-6.2,2.6c0,0,0.4,2.7,1.6,5.1"/>
	<path class="st3" d="M87.1,2c0,0-4.2,0.7-5.6,3.4c0,0,1.7,3.9-0.2,6"/>
	<path class="st3" d="M90,11.3c0,0-1.8-2.2-1.8-2.7"/>
	<path class="st3" d="M80.1,4.2c0.1,0.9,4.8,4.4,12.8,4.9"/>
	<path class="st4" d="M78,5.8c0.1,0.5,0.8,4.3,0.7,6.1c0,0.4,2,0.2,2.5-0.3c0.3-0.2,2.6,2,2.6,2c0.7-1.1,0.7-1.4,1-1.7
		c0.4-0.5,1.5,1,2.7,0.5"/>
	<path class="st5" d="M79.9,4L79.9,4L79.9,4l-1.6-2.3c0,0-0.1,5.2,0.1,4.7c0.2-0.6,0.7-0.7,1.1-1c0.3-0.3,0.5-0.7,0.9-0.8L79.9,4z"
		/>
	<path class="st6" d="M78.7,8.9c-0.5,0.4-1.7,0.3-1.9,0.6c-0.7,0.7-1,1-2,1.9c-0.6,0.5-2.5-0.1-3.3,0"/>
	<path class="st6" d="M78,6.4c-1.9,0.9-4.2,4.8-7,4.5"/>
	<path class="st6" d="M75,11"/>
	<path class="st6" d="M74.1,9.6c0.6,0.3,0.6,0.9,0.7,1.7"/>
	<path class="st6" d="M76.9,9.4c0-0.3-0.2-1.8-0.5-1.8"/>
	<path class="st7" d="M75.3,8.4c-1.4,0-1.4,0.1-2.1,0.2"/>
	<path class="st7" d="M74.4,11.7c0,1.3,0,0.7,0.1,1.4c0.1,0.7,0,0.6,0.7,1.3c0.6,0.7,1.9,0.6,2.5,0.3c0.7-0.2,1.5-1.6,1.5-2.1"/>
	<path class="st7" d="M74.6,13.1c-0.7-0.2-1.7,0.3-3.5,1.6"/>
	<path class="st7" d="M71,18.4c2,0.8,5.1-1.8,5.2-3.5"/>
	<path class="st7" d="M78.8,13.9c0.7,4.6,5.4,2.7,5.2,0.1"/>
	<path class="st7" d="M86.1,18c0,0-1.6,0.5-2.2-0.3c-0.6-0.8-0.7-1.2-0.8-1.8"/>
	<path class="st7" d="M83.9,17.9c-0.7,0.6-0.6,0.3-1,1.4c-0.4,1.1-0.8,2-0.7,2.8"/>
	<path class="st7" d="M83.1,18.6c-2.1-1.4-3.3-0.2-3.3-0.2c-0.8,1-1.6,1.2-1.7,1.4c-0.9,1-0.3,1.9-0.1,2.1c0.7,1,2.9,1.6,4.2-0.1"/>
	<path class="st7" d="M78,19.8c-1.4,0.4-3.7-0.3-3.9-2"/>
	<path class="st7" d="M74.6,19c-1,1.1-1.9,1.3-2.2,2.9c-0.3,1.1,0.8,2.3,1.3,2.5c0,0,2,1.1,3.4-0.1c1-0.9,0.9-1.1,1.4-1.9"/>
	<path class="st7" d="M77.6,25.9c-0.1-0.8-0.6-1.3-0.6-1.6"/>
	<path class="st7" d="M73.2,28.5c0,0-0.9-0.6-0.7-1.5c0.1-0.4,1.1-1.4,1.1-2.6"/>
	<path class="st7" d="M72.5,27c-1.1,0.4-2.1,0.4-2.9-0.2"/>
	<path class="st7" d="M70.6,22.2c0.5,0,1.4-0.1,1.6,0.1"/>
	<path class="st8" d="M80.5,16.9c-0.3-0.1-0.6-0.2-0.6-0.2c0.2,0.6,0.5,0.8,0.2,1.4c-0.3,0.6-0.1-0.2,0.4-0.2c0.5,0,0.5,0.1,0.8,0.1
		c0.3,0.1-0.6-0.4,0.1-1C81,17,80.8,16.9,80.5,16.9z"/>
</g>
<g>
	<g>
		<path d="M5.7,10.6c0-1.2,0-2.3-0.1-2.7C4.4,7.9,1.8,8.1,0,8.3c0.1-0.5,0.2-0.9,0.2-1.4C0.2,6.5,0.1,6,0,5.6c2.8,0.1,4.2,0.2,8,0.2
			c3.8,0,5.2-0.1,7.8-0.2c-0.1,0.5-0.2,0.9-0.2,1.4c0,0.5,0.1,0.9,0.2,1.4c-1.7-0.2-4.3-0.4-5.5-0.4c-0.1,0.4-0.1,1.5-0.1,2.7v7.7
			c0,3.5,0.1,5.8,0.2,8.5C9.9,26.8,9,26.7,8,26.7c-1,0-1.8,0.1-2.5,0.2c0.2-2.7,0.2-5.1,0.2-8.5V10.6z"/>
		<path d="M22,11.5c4.7,0,7.6,2.9,7.6,7.6c0,5-3.1,8.2-7.6,8.2c-3.7,0-7.6-2-7.6-7.5C14.4,14.2,18.1,11.5,22,11.5z M22,12.9
			c-1.9,0-3.1,2.2-3.1,6.9c0,3.5,0.7,6.1,3,6.1c1.9,0,3-2.5,3-7.2C25,15.1,24.1,12.9,22,12.9z"/>
		<path d="M40.3,12.1c-0.1,0.3-0.1,0.6-0.1,0.8c0,0.2,0,0.5,0.1,0.8l-2.7-0.1c-0.1,1.9-0.2,5.2-0.2,6.9c0,4.3,0.3,5,1.7,5
			c0.8,0,1-0.1,1.4-0.3v1.3c-0.8,0.5-2.2,0.8-3.4,0.8c-2.6,0-3.9-1.7-3.9-4.8c0-2.4,0.2-6.2,0.2-8.8l-2.2,0c0.1-0.2,0.1-0.5,0.1-0.8
			c0-0.3,0-0.5-0.1-0.8l2.2,0.1c0-1.3,0-2.2-0.1-3.8c1.4-0.6,2.8-1.2,4.2-1.9l0.3,0.2c-0.2,1.3-0.3,3.6-0.3,5.5L40.3,12.1z"/>
		<path d="M42.6,13.7c1.7-1.4,3.8-2.2,5.8-2.2c3.3,0,5.6,1.4,5.6,5c0,2.6-0.1,4.8-0.1,7c0,1.9,0.6,2.1,1.8,2.1v0.7
			c-1.2,0.6-1.9,0.8-2.8,0.8c-1.5,0-2.4-0.9-2.9-2.3c-1,1.3-2.1,2.3-4,2.3c-3.1,0-4.4-2.1-4.4-4c0-2.7,1.8-3.8,4.6-4.5
			c3.5-0.8,3.8-1.1,3.8-2.2c0-1.5-1.1-2.7-3-2.7c-1.4,0-3.1,0.8-3.7,1.7H43L42.6,13.7z M49.9,18.8c-1.8,1-4.1,0.8-4.1,3.9
			c0,1.5,0.7,2.3,1.8,2.3c1.4,0,2.3-1,2.3-3.1C49.9,20.3,49.9,19.5,49.9,18.8z"/>
		<path d="M58.4,14.2c0-4-0.1-7.2-0.2-10.7c0.5,0.1,1.4,0.2,2.3,0.2c0.9,0,1.8-0.1,2.3-0.2c-0.2,3.5-0.2,6.6-0.2,10.7v2
			c0,4,0.1,7.2,0.2,10.7c-0.5-0.1-1.4-0.2-2.3-0.2c-0.9,0-1.8,0.1-2.3,0.2c0.2-3.5,0.2-6.6,0.2-10.7V14.2z"/>
	</g>
	<g>
		<path d="M109.6,11.7c-1.4,4.2-4,10.8-5.3,15.1c-0.5-0.1-1-0.2-1.6-0.2c-0.5,0-1.1,0.1-1.6,0.2c-1.3-5.4-5.7-19.9-6.2-21.3
			c0.9,0.1,1.8,0.2,2.6,0.2c0.8,0,1.7-0.1,2.5-0.2c1.3,5.3,2.9,11.3,4,15.6h0.1c1.8-5.2,4.4-12.7,5.3-15.6c0.5,0.1,1,0.2,1.5,0.2
			c0.5,0,1-0.1,1.5-0.2c0.6,2.7,3.8,11.5,4.9,15.6h0.1C119,16,121.5,8,122,5.6c0.4,0.1,0.9,0.2,1.3,0.2c0.5,0,0.9-0.1,1.4-0.2
			c-0.8,2.4-5.1,14.5-7,21.3c-0.5-0.1-1-0.2-1.6-0.2c-0.5,0-1.1,0.1-1.6,0.2C113.2,21.8,111.5,16.8,109.6,11.7L109.6,11.7z"/>
		<path d="M128.7,5.2c1.4,0,2.4,1.1,2.4,2.4c0,1.4-1.1,2.4-2.4,2.4c-1.4,0-2.4-1.1-2.4-2.4C126.2,6.2,127.3,5.2,128.7,5.2z
			 M126.6,18.8c0-2.5-0.1-4.7-0.2-6.8c0.6,0.1,1.4,0.2,2.3,0.2c1,0,1.8-0.1,2.3-0.2c-0.2,2.2-0.2,4.3-0.2,6.8V20
			c0,2.5,0.1,4.7,0.2,6.8c-0.5-0.1-1.4-0.2-2.3-0.2c-1,0-1.8,0.1-2.3,0.2c0.2-2.2,0.2-4.3,0.2-6.8V18.8z"/>
		<path d="M138.9,14.2L138.9,14.2c1.2-1.7,2.8-2.7,4.7-2.7c3.1,0,4.8,1.7,4.8,5.7c0,2.1-0.1,3.6-0.1,5.2c0,1.3,0.1,2.9,0.2,4.5
			c-0.5-0.1-1.4-0.2-2.3-0.2c-0.9,0-1.8,0.1-2.3,0.2c0.3-2.2,0.3-5.2,0.3-8.8c0-2.6-0.9-3.8-2.5-3.8c-1.8,0-2.7,1.7-2.7,4.5V20
			c0,2.5,0.1,4.7,0.2,6.8c-0.5-0.1-1.4-0.2-2.3-0.2c-1,0-1.8,0.1-2.3,0.2c0.2-2.2,0.2-4.3,0.2-6.8v-1.2c0-2.5-0.1-4.7-0.2-6.8
			c0.7,0.1,1.4,0.2,2.2,0.2c0.7,0,1.4-0.1,2.2-0.2L138.9,14.2z"/>
		<path d="M155.7,19.4c0,3.3,1.3,5.9,4.1,5.9c1.4,0,2.7-0.5,3.8-1.4l0.4,0.3l-0.7,1.7c-1,0.8-2.4,1.4-4.7,1.4c-4,0-7.5-2.4-7.5-7.8
			c0-5.3,3-7.9,7.2-7.9c4,0,6.3,2.6,6.3,6.8c0,0.5,0,0.8,0,1H155.7z M160.4,18c-0.1-3.1-0.7-5.1-2.3-5.1c-1.8,0-2.4,2.7-2.5,5.1
			H160.4z"/>
	</g>
</g>
<g>
	<g>
		<path class="st9" d="M6.7,9.9c0-1.2,0-2.3-0.1-2.7C5.4,7.2,2.8,7.4,1,7.6c0.1-0.5,0.2-0.9,0.2-1.4c0-0.5-0.1-0.9-0.2-1.4
			C3.8,5,5.2,5.1,9,5.1c3.8,0,5.2-0.1,7.8-0.2c-0.1,0.5-0.2,0.9-0.2,1.4c0,0.5,0.1,0.9,0.2,1.4c-1.7-0.2-4.3-0.4-5.5-0.4
			c-0.1,0.4-0.1,1.5-0.1,2.7v7.7c0,3.5,0.1,5.8,0.2,8.5C10.9,26.1,10,26,9,26c-1,0-1.8,0.1-2.5,0.2c0.2-2.7,0.2-5.1,0.2-8.5V9.9z"/>
		<path class="st9" d="M23,10.9c4.7,0,7.6,2.9,7.6,7.6c0,5-3.1,8.2-7.6,8.2c-3.7,0-7.6-2-7.6-7.5C15.4,13.6,19.1,10.9,23,10.9z
			 M23,12.2c-1.9,0-3.1,2.2-3.1,6.9c0,3.5,0.7,6.1,3,6.1c1.9,0,3-2.5,3-7.2C26,14.4,25.1,12.2,23,12.2z"/>
		<path class="st9" d="M41.3,11.4c-0.1,0.3-0.1,0.6-0.1,0.8c0,0.2,0,0.5,0.1,0.8L38.6,13c-0.1,1.9-0.2,5.2-0.2,6.9
			c0,4.3,0.3,5,1.7,5c0.8,0,1-0.1,1.4-0.3v1.3c-0.8,0.5-2.2,0.8-3.4,0.8c-2.6,0-3.9-1.7-3.9-4.8c0-2.4,0.2-6.2,0.2-8.8l-2.2,0
			c0.1-0.2,0.1-0.5,0.1-0.8c0-0.3,0-0.5-0.1-0.8l2.2,0.1c0-1.3,0-2.2-0.1-3.8c1.4-0.6,2.8-1.2,4.2-1.9L38.8,6
			c-0.2,1.3-0.3,3.6-0.3,5.5L41.3,11.4z"/>
		<path class="st9" d="M43.6,13c1.7-1.4,3.8-2.2,5.8-2.2c3.3,0,5.6,1.4,5.6,5c0,2.6-0.1,4.8-0.1,7c0,1.9,0.6,2.1,1.8,2.1v0.7
			c-1.2,0.6-1.9,0.8-2.8,0.8c-1.5,0-2.4-0.9-2.9-2.2c-1,1.3-2.1,2.2-4,2.2c-3.1,0-4.4-2.1-4.4-4c0-2.7,1.8-3.8,4.6-4.5
			c3.5-0.8,3.8-1.1,3.8-2.2c0-1.5-1.1-2.7-3-2.7c-1.4,0-3.1,0.8-3.7,1.7H44L43.6,13z M50.9,18.2c-1.8,1-4.1,0.8-4.1,3.9
			c0,1.5,0.7,2.3,1.8,2.3c1.4,0,2.3-1,2.3-3.1C50.9,19.6,50.9,18.9,50.9,18.2z"/>
		<path class="st9" d="M59.4,13.5c0-4-0.1-7.2-0.2-10.7C59.7,2.9,60.6,3,61.5,3c0.9,0,1.8-0.1,2.3-0.2c-0.2,3.5-0.2,6.6-0.2,10.7v2
			c0,4,0.1,7.2,0.2,10.7c-0.5-0.1-1.4-0.2-2.3-0.2c-0.9,0-1.8,0.1-2.3,0.2c0.2-3.5,0.2-6.6,0.2-10.7V13.5z"/>
	</g>
	<g>
		<path class="st9" d="M110.6,11.1c-1.4,4.2-4,10.8-5.3,15.1c-0.5-0.1-1-0.2-1.6-0.2s-1.1,0.1-1.6,0.2c-1.3-5.4-5.7-19.9-6.2-21.3
			c0.9,0.1,1.8,0.2,2.6,0.2c0.8,0,1.7-0.1,2.5-0.2c1.3,5.3,2.9,11.2,4,15.6h0.1c1.8-5.2,4.4-12.7,5.3-15.6c0.5,0.1,1,0.2,1.5,0.2
			s1-0.1,1.5-0.2c0.6,2.7,3.8,11.5,4.9,15.6h0.1c1.6-5.2,4-13.1,4.6-15.6c0.4,0.1,0.9,0.2,1.3,0.2c0.5,0,0.9-0.1,1.4-0.2
			c-0.8,2.4-5.1,14.5-7,21.3c-0.5-0.1-1-0.2-1.6-0.2c-0.5,0-1.1,0.1-1.6,0.2C114.2,21.1,112.5,16.1,110.6,11.1L110.6,11.1z"/>
		<path class="st9" d="M129.6,4.5c1.4,0,2.4,1.1,2.4,2.4c0,1.4-1.1,2.4-2.4,2.4c-1.4,0-2.4-1.1-2.4-2.4
			C127.2,5.6,128.3,4.5,129.6,4.5z M127.6,18.1c0-2.5-0.1-4.7-0.2-6.8c0.6,0.1,1.4,0.2,2.3,0.2c1,0,1.8-0.1,2.3-0.2
			c-0.2,2.2-0.2,4.3-0.2,6.8v1.2c0,2.5,0.1,4.7,0.2,6.8c-0.5-0.1-1.4-0.2-2.3-0.2c-1,0-1.8,0.1-2.3,0.2c0.2-2.2,0.2-4.3,0.2-6.8
			V18.1z"/>
		<path class="st9" d="M139.9,13.6L139.9,13.6c1.2-1.7,2.8-2.7,4.7-2.7c3.1,0,4.8,1.7,4.8,5.7c0,2.1-0.1,3.6-0.1,5.2
			c0,1.3,0.1,2.9,0.2,4.5c-0.5-0.1-1.4-0.2-2.3-0.2c-0.9,0-1.8,0.1-2.3,0.2c0.3-2.2,0.3-5.2,0.3-8.8c0-2.6-0.9-3.8-2.5-3.8
			c-1.8,0-2.7,1.7-2.7,4.5v1.2c0,2.5,0.1,4.7,0.2,6.8c-0.5-0.1-1.4-0.2-2.3-0.2s-1.8,0.1-2.3,0.2c0.2-2.2,0.2-4.3,0.2-6.8v-1.2
			c0-2.5-0.1-4.7-0.2-6.8c0.7,0.1,1.4,0.2,2.2,0.2c0.7,0,1.4-0.1,2.2-0.2L139.9,13.6z"/>
		<path class="st9" d="M156.6,18.7c0,3.3,1.3,5.9,4.1,5.9c1.4,0,2.7-0.5,3.8-1.4l0.4,0.3l-0.7,1.7c-1,0.8-2.4,1.4-4.7,1.4
			c-4,0-7.5-2.4-7.5-7.8c0-5.3,3-7.9,7.2-7.9c4,0,6.3,2.6,6.3,6.8c0,0.5,0,0.8,0,1H156.6z M161.4,17.3c-0.1-3.1-0.7-5.1-2.3-5.1
			c-1.8,0-2.4,2.7-2.5,5.1H161.4z"/>
	</g>
</g>
<g>
	<path class="st10" d="M97.5,34.6c-0.3,0.4-0.5,0.7-0.9,1.1c0.1,0.1,0.3,0.3,0.7,0.7L96,37.7c-0.2-0.1-0.4-0.3-0.7-0.6
		c-0.1-0.1-0.2-0.2-0.2-0.2c-0.5,0.3-1,0.5-1.4,0.6c-0.4,0.1-0.9,0.2-1.5,0.2c-1.2,0-2.1-0.2-2.6-0.7c-0.6-0.5-0.8-1.1-0.8-1.7
		c0-1.3,0.8-2.2,2.5-2.8c-0.3-0.6-0.5-1.1-0.5-1.6c0-0.7,0.3-1.3,0.8-1.6c0.6-0.4,1.2-0.6,2.1-0.6c0.8,0,1.5,0.2,2,0.6
		c0.5,0.4,0.8,0.8,0.8,1.4c0,0.3-0.1,0.6-0.3,0.9c-0.2,0.3-0.4,0.5-0.7,0.7c-0.3,0.2-0.6,0.4-1.1,0.6c0,0-0.1,0.1-0.3,0.1l1.1,1.3
		c0.2-0.2,0.4-0.4,0.6-0.7c0.1-0.1,0.1-0.1,0.1-0.2L97.5,34.6z M93.7,35.6c-0.6-0.7-1.1-1.2-1.5-1.8c-0.7,0.4-1.1,0.8-1.1,1.3
		c0,0.2,0,0.3,0.1,0.5c0.1,0.2,0.2,0.3,0.4,0.4c0.2,0.1,0.4,0.2,0.6,0.2C92.7,36.2,93.2,36,93.7,35.6z M93.3,31.6
		c0.4-0.2,0.7-0.4,0.9-0.6c0.2-0.2,0.3-0.4,0.3-0.6c0-0.1-0.1-0.3-0.2-0.4C94.2,30,94,30,93.8,30c-0.3,0-0.5,0.1-0.6,0.2
		C93,30.4,93,30.6,93,30.8C93,31,93.1,31.3,93.3,31.6z"/>
	<path class="st10" d="M114.3,28.8l-1.9,8.8h-2.3l1.6-6.7h0l-3.3,6.7h-2l-0.4-6.7h0l-1.3,6.7h-2.3l1.9-8.8h3.3l0.3,5.6h0l2.8-5.6
		H114.3z"/>
	<path class="st10" d="M120,28.7c1.3,0,2.3,0.4,2.9,1.1c0.6,0.7,0.9,1.6,0.9,2.6c0,0.4-0.1,0.9-0.2,1.4c-0.1,0.5-0.3,1.1-0.7,1.6
		c-0.3,0.6-0.8,1-1.3,1.4c-0.5,0.4-1,0.6-1.5,0.8c-0.5,0.1-1,0.2-1.6,0.2c-1.3,0-2.2-0.3-2.9-1c-0.7-0.6-1.1-1.5-1.1-2.7
		c0-0.6,0.1-1.2,0.3-1.8c0.2-0.6,0.4-1.1,0.8-1.6c0.3-0.5,0.8-0.9,1.3-1.3c0.5-0.3,1-0.6,1.5-0.7C119,28.7,119.5,28.7,120,28.7z
		 M118.9,35.7c0.5,0,1-0.2,1.3-0.6c0.4-0.4,0.6-0.9,0.8-1.5c0.2-0.6,0.2-1,0.2-1.3c0-0.6-0.1-1-0.4-1.3c-0.3-0.3-0.6-0.4-1.1-0.4
		c-0.5,0-0.9,0.2-1.3,0.5c-0.4,0.4-0.6,0.8-0.8,1.4c-0.2,0.6-0.3,1.1-0.3,1.5c0,0.4,0.1,0.8,0.4,1.1C118,35.6,118.4,35.7,118.9,35.7
		z"/>
	<path class="st10" d="M126.2,28.8h5c0.9,0,1.5,0.2,1.9,0.7c0.4,0.5,0.6,1,0.6,1.6c0,0.7-0.2,1.3-0.6,1.8c-0.4,0.5-1.1,0.8-2,1
		c0.6,0.5,1.2,1.7,2,3.7h-2.9c-0.2-0.6-0.5-1.3-0.8-2.1c-0.3-0.8-0.6-1.2-0.7-1.3c-0.2-0.1-0.4-0.2-0.6-0.2h-0.1l-0.8,3.6h-2.7
		L126.2,28.8z M128.1,32.4h0.5c0.9,0,1.4,0,1.7-0.1c0.3-0.1,0.4-0.2,0.6-0.4c0.1-0.2,0.2-0.4,0.2-0.5c0-0.2-0.1-0.4-0.2-0.5
		c-0.1-0.1-0.5-0.2-1-0.2h-1.4L128.1,32.4z"/>
	<path class="st10" d="M142.8,28.8l-0.4,1.9H138l-0.3,1.4h4.3l-0.4,1.8h-4.3l-0.4,1.7h4.8l-0.4,2h-7.5l1.9-8.8H142.8z"/>
</g>
<g>
	<path d="M168.4,10.8c1,0,1.8,0.8,1.8,1.9c0,1-0.8,1.9-1.8,1.9c-1,0-1.9-0.8-1.9-1.9C166.5,11.7,167.3,10.8,168.4,10.8L168.4,10.8z
		 M168.4,11.2c-0.8,0-1.4,0.7-1.4,1.5c0,0.8,0.6,1.5,1.4,1.5c0.8,0,1.4-0.7,1.4-1.5C169.8,11.9,169.2,11.2,168.4,11.2L168.4,11.2z
		 M168,13.8h-0.4v-2.1c0.2,0,0.3-0.1,0.7-0.1c0.4,0,0.6,0.1,0.7,0.2c0.1,0.1,0.2,0.2,0.2,0.4c0,0.2-0.2,0.4-0.4,0.5v0
		c0.2,0,0.3,0.2,0.3,0.5c0,0.3,0.1,0.4,0.1,0.5h-0.5c0-0.1-0.1-0.3-0.1-0.5c0-0.2-0.2-0.3-0.4-0.3H168V13.8z M168,12.6h0.2
		c0.3,0,0.5-0.1,0.5-0.3c0-0.2-0.1-0.3-0.4-0.3c-0.1,0-0.2,0-0.2,0V12.6z"/>
</g>
</svg>
