<?xml version="1.0" encoding="utf-8"?>
<!-- Generator: Adobe Illustrator 21.1.0, SVG Export Plug-In . SVG Version: 6.00 Build 0)  -->
<svg version="1.1" id="Layer_1" xmlns="http://www.w3.org/2000/svg" xmlns:xlink="http://www.w3.org/1999/xlink" x="0px" y="0px"
	 viewBox="0 0 208.1 57.9" style="enable-background:new 0 0 208.1 57.9;" xml:space="preserve">
<style type="text/css">
	.st0{fill:#6D6D6D;}
</style>
<title>Asset 1</title>
<g id="Layer_2">
	<g id="Calque_1">
		<path class="st0" d="M0.2,12.7c12.8,4.7,27.4,3.7,40.9,4c15.3,0.4,30.7,0.5,46,0.2c26.5-0.5,54.4-1.1,78.9-12.4
			c0.2-0.1,0.4-0.4,0.4-0.7v-3c0-0.4-0.4-0.8-0.8-0.8c0,0,0,0,0,0c-16.8-0.1-33.1,5-46.4,15.5c-5,3.9-10.6,9.2-8.4,16.2
			c0.9,3,3.1,5.4,5.1,7.7c3.5,3.9,6.7,8,9.5,12.4c1.2,1.8,4.1,0.1,2.9-1.7c-3.9-6-9.4-10.6-13.2-16.5c-5.9-9.2,6.1-16.8,12.9-21.1
			c6.5-4,13.5-7,20.8-8.9c3.9-1,7.9-1.7,11.9-2c0.8-0.1,3.9-0.7,4.1,0.6s-6.2,3.8-7.5,4.3c-15,5.6-31.2,7.4-47.1,8.3
			S75.9,16.1,58.7,16c-9.5-0.1-18.9-0.3-28.4-0.5S10,15.3,0.4,12.1C0,12-0.2,12.6,0.2,12.7z"/>
		<path class="st0" d="M125.2,12.7c-11.9,11.5-22.9,23.8-33,36.8c-0.6,0.4-0.7,1.2-0.2,1.8c0.4,0.6,1.2,0.7,1.8,0.2
			c0.2-0.1,0.3-0.3,0.4-0.6c9.7-13.3,20.3-25.8,31.8-37.6c0.2-0.2,0.1-0.5-0.1-0.7c-0.2-0.1-0.4-0.1-0.6,0H125.2z"/>
		<path class="st0" d="M46.8,15.1c-12.7,10.1-23.8,22-33,35.3c-0.8,1.2,1.1,2.3,1.9,1.1c8.9-13.3,19.7-25.2,32.1-35.4
			C48.5,15.5,47.5,14.6,46.8,15.1z"/>
		<path class="st0" d="M47.7,27c-1.3,0.1-1,0-2,0.9c-0.1,0-0.1,0.1,0,0.1c0,0.1,0.1,0.1,0.1,0.1l0,0h6c2.2,0,2.6-0.8,2,1.1
			s-3.3,3.7-4.5,5l-3.8,4.3L29,56.9c-0.5,0.5,0.3,1.3,0.8,0.8l26.7-30c0.2-0.2,0.3-0.5,0.1-0.7c-0.1-0.2-0.3-0.3-0.5-0.2L52.5,27
			l-3.3,0.4C47.7,28.1,47.2,27.9,47.7,27C47.8,27,47.7,26.9,47.7,27L47.7,27z"/>
		<path class="st0" d="M65.2,31.5c5.1-3.2,9.9-7,14.3-11.2c0.1-0.2,0.1-0.4-0.1-0.6c-0.1-0.1-0.3-0.1-0.4,0
			c-8.2,4.9-15.2,11.5-20.4,19.5c-0.4,0.6,0.6,1.2,1,0.6c4-6.3,9.1-11.8,15-16.2c0.4-0.3,3.5-2.7,3.7-2.5s-2.7,1.9-3.4,2.5
			c-3.1,2.7-6.5,5.2-10,7.4C64.6,31.2,64.9,31.7,65.2,31.5z"/>
		<path class="st0" d="M71.8,30.5l20.5-0.7c0.3,0,0.3-0.5,0-0.5l-20.5,1.1C71.7,30.4,71.7,30.5,71.8,30.5z"/>
		<path class="st0" d="M129,27.4l0.4-0.6c0-0.1,0-0.1,0-0.2c-1.1-2.1-4.2-0.4-5.9,0.1c-0.2,0.1-0.2,0.4-0.1,0.6
			c0,0.1,0.1,0.1,0.2,0.1c1-0.1,4.9-1.3,5-0.6s0.3,0.7,0.7,0.5c6.7-2.8,12.8-6.8,18-11.8c0.6-0.5-0.3-1.4-0.9-0.9
			c-6.2,5.4-11.3,11.9-15.2,19.1c-0.4,0.7,0.7,1.4,1.1,0.7c3.8-7.1,8.8-13.6,14.9-18.9l-0.9-0.9c-2.9,2.8-6,5.3-9.4,7.5
			c-1.8,1.1-5.4,3.8-7.5,3.7s-1.1-0.8-2.1-0.8c-0.7,0.1-1.4,0.4-1.9,0.9c-2.8,2.8,4.8-1.3,3.3,1.2c0,0.1,0,0.1,0.1,0.1
			c0.1,0,0.1,0,0.1,0L129,27.4z"/>
		<path class="st0" d="M158.2,14.6l-16,16.7c-0.3,0.3,0.2,0.7,0.4,0.4l15.7-16.8c0.1-0.1-0.1-0.3-0.2-0.2L158.2,14.6z"/>
		<path class="st0" d="M153.4,28.4c2.8-1.1,16.8-7.1,14.2-11.6c-0.1-0.1-0.3-0.2-0.5-0.1c-5.8,3.8-10.9,8.4-15.3,13.8
			c-0.2,0.2-0.1,0.5,0.1,0.7c0.2,0.1,0.4,0.1,0.6,0c2.8-2.6,3.5-4.5,8.7-4c1.9,0.3,3.8,0.8,5.7,1.4l13.4,2.9c9,1.8,18,3.3,27,4.6
			c0.8,0.1,1.2-1.1,0.3-1.3c-11.7-1.6-23.2-3.6-34.8-6.1c-4.4-0.9-9.8-3.2-14.3-2.9s-4.7,2.7-6.9,4.8l0.7,0.7c1.6-2,3.3-4,5.1-5.8
			c1.2-1.2,6.4-6.8,7.8-6.6s1-0.6,0.4,0.5c0,0.6-0.4,1.2-0.9,1.5c-1.1,1.4-2.9,2.4-4.4,3.4c-2.2,1.5-4.6,2.7-7.1,3.8
			c-0.2,0.1-0.1,0.4,0.1,0.3L153.4,28.4z"/>
		<path class="st0" d="M141.6,25.1l23,0.5c0.2-0.1,0.4-0.4,0.2-0.7c0-0.1-0.1-0.2-0.2-0.2h-23c-0.1,0-0.2,0.1-0.2,0.2
			s0.1,0.2,0.2,0.2l0,0V25.1z"/>
	</g>
</g>
</svg>
