<svg xmlns="http://www.w3.org/2000/svg" viewBox="0 0 600 400"><defs><style>.a{fill:#f1f2f2;}.b{opacity:0.1;}.c{fill:#333;}.d{font-size:50px;fill:#231f20;font-family:Oswald-Medium, Oswald;letter-spacing:0.03em;}.e{letter-spacing:0.02em;}.f{fill:none;stroke:#c09f61;stroke-miterlimit:10;stroke-width:2px;}</style></defs><title>construction</title><rect class="a" width="600" height="400"/><g class="b"><path class="c" d="M477.1,345.4c0-1.8-1.2-3-2.4-4.2l-26.5-18.1L342.5,217.5,351,209a5.8,5.8,0,0,0,0-8.4l-14.5-14.5L352.6,168a40.4,40.4,0,0,0,14.1,4.9,45.9,45.9,0,0,0,8.4.6c4.8,0,6,0,10.9,4.2a9.7,9.7,0,0,0-3.6,7.8,13.3,13.3,0,0,0,3.6,9l21.1,21.1c3,3.6,7.8,5.4,12.7,5.4s9.7-1.8,12.7-6l42.8-42.8c3.6-3,5.4-7.8,5.4-12.7a17.4,17.4,0,0,0-5.4-12.7l-21.1-21.1a11.9,11.9,0,0,0-8.4-3.6c-3,0-6,1.8-8.4,3.6-4.8-4.2-4.8-5.4-4.8-10.3a26.7,26.7,0,0,0-1.2-9A42.2,42.2,0,0,0,419.2,83L397.4,61.2c-12.7-12.7-18.7-18.7-35-25.9C327.5,19,291.9,22,240,45.5a5.5,5.5,0,0,0-3.6,6.6,5.9,5.9,0,0,0,6,4.8h7.8c26.5,0,40.4,0,64.6,24.1,10.6,10.6,10.9,26.8,1.4,38.7a5.5,5.5,0,0,0-3.2,1.7l-19.1,21.3L177.2,26.2a24.8,24.8,0,0,0-35,0L125.9,42.5a24.8,24.8,0,0,0,0,35L245.4,197,125.9,330.3a25.5,25.5,0,0,0-7.2,18.1,24.2,24.2,0,0,0,7.2,17.5l8.4,8.4a24.8,24.8,0,0,0,16.9,6.6c6.6,0,12.7-3,17.5-7.2L288.6,239.6l11.7,11.7a5.5,5.5,0,0,0,4.2,1.8,5.1,5.1,0,0,0,3.6-1.2l9-9L422.8,348.4,440.9,375c1.2,1.2,2.4,2.4,4.2,2.4l29,3.6h.6c1.8,0,3-.6,4.8-1.2a6.9,6.9,0,0,0,1.8-4.8ZM322.6,71.5c-19.3-18.7-33.8-24.7-50.1-26.5,34.4-10.9,59.7-10.3,85.1,1.2,14.5,6,19.3,10.9,32,23.5l21.7,21.7a28.3,28.3,0,0,1,8.4,16.9,34.6,34.6,0,0,1,.6,7.2c0,6.6.6,11.5,7.8,18.7a13.3,13.3,0,0,0,9,3.6c3.6,0,6.6-1.2,8.4-3.6l21.1,21.1a5.8,5.8,0,0,1,0,8.4L424,206.6a5.8,5.8,0,0,1-8.4,0l-21.1-21.1a8.4,8.4,0,0,0,3-8.4,13.3,13.3,0,0,0-3.6-9c-7.2-7.2-12.1-7.8-18.7-7.8a34.6,34.6,0,0,1-7.2-.6c-6.6-.6-12.1-3.6-16.9-8.4L325,125.2A39.8,39.8,0,0,0,322.6,71.5ZM134.4,69.1a12.3,12.3,0,0,1-3.6-9,12.3,12.3,0,0,1,3.6-9l16.3-16.3a13.1,13.1,0,0,1,18.1,0l117,117-8.5,9.7-23.6,26.4Zm25.9,296.2a12.3,12.3,0,0,1-9,3.6,11.9,11.9,0,0,1-8.4-3.6l-8.4-7.8a11.9,11.9,0,0,1-3.6-8.4,12.9,12.9,0,0,1,4.2-9.7L317.5,135.2l25.6,25.6-17.9,20a6.8,6.8,0,0,0-1.4,1.1L284,226.5a6.3,6.3,0,0,0-1.3,1.8ZM304.5,238.6l-7.8-7.8,12-13.6,19.5-21.9,10.1,9.5Zm30.2-12.7,100.8,102-8.4,8.4-101.4-102Zm114.6,140-13.9-20.5,10.3-10.3L465.6,349l2.4,19.3Z"/><path class="c" d="M261.7,153.5,159.1,51a6,6,0,1,0-8.4,8.4L253.2,162a5.8,5.8,0,0,0,8.4,0A5.8,5.8,0,0,0,261.7,153.5Z"/></g><text class="d" transform="translate(65.3 191.5)">UNDER CONSTRUCTION<tspan x="2.4" y="60">MORE </tspan><tspan class="e" x="132.6" y="60">W</tspan><tspan x="169.2" y="60">ORK EN ROUTE</tspan></text><line class="f" x1="473.2" y1="132.3" x2="545.5" y2="132.3"/></svg>