<svg id="Layer_1" data-name="Layer 1" xmlns="http://www.w3.org/2000/svg" width="564.3" height="151" viewBox="0 0 564.3 151"><defs><style>.cls-1{fill:#666766;}</style></defs><title>signature</title><path class="cls-1" d="M.8,20.8Q132.1,18.5,263.1,7.9q36.2-2.9,72.4-6.5c1.3-.1,2.5-1.5.5-1.3Q205.9,12.8,75.3,17.5,38.6,18.8,2,19.4c-.9,0-3.1,1.4-1.2,1.4Z"/><path class="cls-1" d="M130.1,18.4A561,561,0,0,0,72.7,124.6c-.6,1.5,2.3,1.4,2.8.3a558.4,558.4,0,0,1,57-105.7c1-1.5-1.7-1.9-2.4-.8Z"/><path class="cls-1" d="M130.3,92.9a4.8,4.8,0,0,0-.7-5.9,1.7,1.7,0,0,0-2-.2,34.3,34.3,0,0,0-8.9,7.2c-1.2,1.3,1.3,1.6,2.2,1,7-5.5,16.7-2.2,24.8-3.5a29.9,29.9,0,0,0,17.6-9.9l-2.6-.5q-22.8,33.8-43.5,68.8c-.8,1.3,2.1,1.3,2.8.3q20.7-35.1,43.5-68.8c.9-1.3-2-1.2-2.6-.5-7,7.9-15.4,9.1-25.4,9-5.9-.1-11.6.2-16.5,4l2.2,1a30.1,30.1,0,0,1,7.7-6.4l-2-.2a3.2,3.2,0,0,1,.6,4.4c-.7,1.4,2.2,1.4,2.8.3Z"/><path class="cls-1" d="M179.3,89.9a159.5,159.5,0,0,0,48.3-64.2.3.3,0,0,0-.1-.3c-5.8-5.6-14,12.5-15.8,15.4q-10.5,17.1-19.7,34.9c-.3.6,2.5.4,2.9-.4q8.5-16.4,18-32.2l4.9-7.9c.7-1.1,3.8-7.5,5-7.8s-.5,4.3-1,5.4-2.3,4.9-3.6,7.2A156.9,156.9,0,0,1,177,89.6c-1.2,1,1.7.8,2.3.3Z"/><path class="cls-1" d="M208.7,80.4l53.8.6c1,0,3.1-1.5,1.2-1.5l-53.8-.6c-1,0-3.1,1.5-1.2,1.5Z"/><path class="cls-1" d="M346.6,138.8a146.4,146.4,0,0,0-26.5-28.3l-2.2,1.4c16.7,6.1,31.5-7.2,37.8-21.6,4.1-9.3,6.5-19.6,8-29.6s2.7-20.7.9-30.6c-1.4-7.4-6.5-15.1-14.8-15.2s-13.5,6.4-18.2,11.3c-13.6,14-22.4,31.8-30.2,49.5q-15.4,34.9-28,71c-.4,1.1,2.5.7,2.9-.3q9.2-26.1,19.8-51.7c6.4-15.5,12.9-31.1,21.4-45.6a121.9,121.9,0,0,1,14.2-19.8,85.4,85.4,0,0,1,8.2-8.1c2.7-2.3,4.8-3.7,8.4-3.9a10.2,10.2,0,0,1,8.5,3.5c6.3,6.5,5.6,17.3,5.3,25.5a142.5,142.5,0,0,1-3.6,25.9c-4,17.4-15.5,46.8-39,38.2-.6-.2-3.1.7-2.2,1.4A146.4,146.4,0,0,1,343.9,140c.6.9,3.4-.1,2.7-1.2Z"/><path class="cls-1" d="M383.4,88.1a15.7,15.7,0,0,0-7.9,6.6c-.4.6,2.3,0,2.5-.2,5.7-4.3,13.9-2.4,20.1-6.1s9.6-8.9,13.4-13.9a113.5,113.5,0,0,0,19.1-40.5c.2-.9-2.5,0-2.7.3-16.7,17.4-24.3,40.6-31.4,63.1-.2.6,2.6.3,2.9-.5,7-22.4,14.6-45.5,31.2-62.8l-2.7.3a113,113,0,0,1-18.4,39.6c-5.3,7.2-10.8,14.7-20.2,16.1-4.8.7-9.3,1.1-13.3,4.1l2.5-.2a11.8,11.8,0,0,1,6-5.4c1.9-.8.1-1.2-1-.7Z"/><path class="cls-1" d="M461.4,94.9a44.7,44.7,0,0,0-16.2-13.5l-2.5,1.1c8.2,2.7,16.1-2.1,20.8-8.8s6.7-11.6,9.4-17.6,5.7-11.2,2.4-16.3c-.5-.7-2.3.1-2.8.5-6,5-9.6,11.6-13.2,18.4s-8.4,16.1-12.5,24.2c-8.4,16.8-16.5,33.8-24.5,50.8-.3.7,2.4,0,2.8-.3a45.9,45.9,0,0,0,11.4-20.4c.2-.7-2.7-.3-2.9.5a45,45,0,0,1-11.1,20l2.8-.3c7.8-16.4,15.6-32.8,23.7-49q6.1-12.2,12.4-24.2c3.8-7.2,7.5-14.5,13.9-19.8l-2.8.5c4.1,6.3-2.2,16.1-5.1,21.8-4,8.1-10.4,22.8-22.2,18.9-.6-.2-3,.8-2.5,1.1a44.7,44.7,0,0,1,16.2,13.5c.4.6,3.2-.4,2.7-1Z"/><path class="cls-1" d="M445,82.3l58-2.9,28.5-1.4,13.8-.7c5.2-.3,11.8-1.7,16.4,1.4.8.5,3.5-.6,2.3-1.4-5.9-4.1-15.6-1.8-22.2-1.4l-32.5,1.6-64,3.2c-1.4.1-2.4,1.7-.4,1.6Z"/><path class="cls-1" d="M410,94.9a178.9,178.9,0,0,0,43.3-59.4c.6-1.4-2-1.5-2.6-.6a193,193,0,0,0-31.2,82.2c-.2,1.5,2.8,1.1,2.9-.2a190.6,190.6,0,0,1,30.7-81.2l-2.6-.6a176,176,0,0,1-42.5,58.5c-1.5,1.3.8,2.3,1.9,1.3Z"/><path class="cls-1" d="M411.8,69.5a443.9,443.9,0,0,1,47-2.8c1,0,3.1-1.5,1.2-1.5A450.9,450.9,0,0,0,412.2,68c-1.3.2-2.5,1.7-.4,1.5Z"/></svg>